---
sitemap:
  exclude: 'yes'
---
<svg xmlns="http://www.w3.org/2000/svg" xmlns:xlink="http://www.w3.org/1999/xlink" width="500" height="500" viewBox="0 0 500 500">
	<rect width="500" height="500" fill="#{{ site.color.dark }}"/>
	<g transform="translate(544.619 -2046.207)">
		<path d="M225.339,394.413a27.371,27.371,0,0,1-10.614-2.129A27.943,27.943,0,0,1,205.4,385.9l-13.3-13.737a111.711,111.711,0,0,0,13.085-11.641,101.487,101.487,0,0,0,19.06-28.049,110.77,110.77,0,0,0,5.976-16.408H187.076a66.818,66.818,0,0,1-8.3,16.386,63.738,63.738,0,0,1-12.385,13.17L107.5,284.808H233.736a236.869,236.869,0,0,0,1.321-24.211,133.53,133.53,0,0,0-3.577-31.308,116.229,116.229,0,0,0-4.471-14.375,112.706,112.706,0,0,0-6.259-13.522A107.083,107.083,0,0,0,212.841,189a102.248,102.248,0,0,0-9.423-10.991,103.647,103.647,0,0,0-10.936-9.588,111.4,111.4,0,0,0-12.449-8.185,109.647,109.647,0,0,0-13.7-6.547,114.781,114.781,0,0,0-14.691-4.677A126.6,126.6,0,0,0,135.96,146.2a145.75,145.75,0,0,0-16.672-.935,151.067,151.067,0,0,0-17.1.949,131.031,131.031,0,0,0-16.081,2.847,118.512,118.512,0,0,0-15.063,4.746A112.86,112.86,0,0,0,57,160.455a103.906,103.906,0,0,0-35.618,32.685,124.335,124.335,0,0,1-11.02-20.162,126.35,126.35,0,0,1-7.072-21.536,128.03,128.03,0,0,1,2.47-66.855,125.35,125.35,0,0,1,8.719-21.032A123.574,123.574,0,0,1,43.763,26.969,111.973,111.973,0,0,1,78.87,6.63,114.907,114.907,0,0,1,117.6,0a121.865,121.865,0,0,1,24.527,2.516,125.883,125.883,0,0,1,23.8,7.438,128.171,128.171,0,0,1,22.246,12.2A129.672,129.672,0,0,1,208.04,38.942l17.343,17.872,17.343-17.872a130.127,130.127,0,0,1,19.9-16.79,128.466,128.466,0,0,1,22.259-12.2,125.972,125.972,0,0,1,23.8-7.439A121.775,121.775,0,0,1,333.2,0a114.8,114.8,0,0,1,38.707,6.629A112,112,0,0,1,407,26.969a124.218,124.218,0,0,1,40,64.762,127.774,127.774,0,0,1-3.937,74.467A123.828,123.828,0,0,1,415.631,210L245.279,385.9a27.943,27.943,0,0,1-9.326,6.388A27.372,27.372,0,0,1,225.339,394.413Zm-31.66-142.179H75.951L48.182,223.56a72.9,72.9,0,0,1,7.5-13.587,69.531,69.531,0,0,1,10.121-11.442,76.354,76.354,0,0,1,11.238-8.474A71.484,71.484,0,0,1,89.41,184a74.74,74.74,0,0,1,13.494-3.632,86.453,86.453,0,0,1,14.622-1.21,93.03,93.03,0,0,1,20.194,2.146,81.428,81.428,0,0,1,18.322,6.438,65.835,65.835,0,0,1,27.512,25.09,65.953,65.953,0,0,1,7.593,18.1,85.769,85.769,0,0,1,2.531,21.294Z" transform="translate(-519.997 2099)" fill="#{{ site.color.primary }}"/>
		<path d="M119.291,201.274a142.676,142.676,0,0,1-16.713-.963,126.172,126.172,0,0,1-15.806-2.889,116.753,116.753,0,0,1-14.9-4.814,113.926,113.926,0,0,1-13.989-6.74,110.2,110.2,0,0,1-12.807-8.515,106.762,106.762,0,0,1-11.349-10.138,109.941,109.941,0,0,1-9.891-11.761A119.822,119.822,0,0,1,8.666,127.309a127.718,127.718,0,0,1-4.814-15.888A143.49,143.49,0,0,1,.963,94.406,167.382,167.382,0,0,1,0,76.261a171.857,171.857,0,0,1,.935-18.13A146.308,146.308,0,0,1,3.742,41.157,128.983,128.983,0,0,1,8.418,25.337a119.019,119.019,0,0,1,6.548-14.664A115.906,115.906,0,0,1,21.386,0,124.056,124.056,0,0,0,35.05,16.859L48.184,30.421A85.753,85.753,0,0,0,43.795,43.95a107.421,107.421,0,0,0-2.418,15.145H75.954L107.5,91.668H40.938a105.9,105.9,0,0,0,2.352,16.851,82.779,82.779,0,0,0,4.856,14.9A71.086,71.086,0,0,0,55.5,136.361a69.346,69.346,0,0,0,9.863,10.99,79.336,79.336,0,0,0,11.706,8.762,74.664,74.664,0,0,0,12.889,6.259,78.4,78.4,0,0,0,14.072,3.755,90.958,90.958,0,0,0,15.255,1.252,88.831,88.831,0,0,0,23.825-3.026,64.311,64.311,0,0,0,19.534-9.079c1.284-.894,2.543-1.835,3.744-2.8l25.7,26.542-.133.1-.483.364a101.912,101.912,0,0,1-15.407,9.533,107.926,107.926,0,0,1-17.167,6.809,124.335,124.335,0,0,1-18.928,4.086A152.547,152.547,0,0,1,119.291,201.274Z" transform="translate(-519.997 2292.139)" fill="#{{ site.color.primary }}" />
	</g>
</svg>