<svg xmlns="http://www.w3.org/2000/svg" width="563" height="399" viewBox="0 0 563 399"><g transform="translate(-58 -3149)"><rect width="563" height="133" transform="translate(58 3415)" fill="#6fa8dc"/><rect width="425" height="133" transform="translate(196 3282)" fill="#93c47d"/><rect width="163" height="133" transform="translate(458 3149)" fill="#e06666"/><rect width="163" height="133" transform="translate(295 3149)" fill="#f6b26b"/><path d="M18.75,0H16.02L5.04-16.65V0H2.31V-20.94H5.04L16.02-4.32V-20.94h2.73Zm6.06-19.11a1.8,1.8,0,0,1-1.32-.54,1.8,1.8,0,0,1-.54-1.32,1.8,1.8,0,0,1,.54-1.32,1.8,1.8,0,0,1,1.32-.54,1.712,1.712,0,0,1,1.275.54,1.822,1.822,0,0,1,.525,1.32,1.822,1.822,0,0,1-.525,1.32A1.712,1.712,0,0,1,24.81-19.11Zm1.32,2.67V0H23.4V-16.44ZM36.9-2.52,42-16.44h2.91L38.46,0H35.28L28.83-16.44h2.94Zm9.69-5.76A9.234,9.234,0,0,1,47.61-12.7a7.4,7.4,0,0,1,2.805-2.955,7.694,7.694,0,0,1,3.975-1.05,7.3,7.3,0,0,1,3.75.93,6.2,6.2,0,0,1,2.37,2.34v-3h2.76V0H60.51V-3.06A6.432,6.432,0,0,1,58.1-.675,7.224,7.224,0,0,1,54.36.27,7.452,7.452,0,0,1,50.4-.81a7.575,7.575,0,0,1-2.79-3.03A9.436,9.436,0,0,1,46.59-8.28Zm13.92.03a6.684,6.684,0,0,0-.75-3.24,5.3,5.3,0,0,0-2.025-2.115,5.517,5.517,0,0,0-2.805-.735,5.524,5.524,0,0,0-2.79.72,5.223,5.223,0,0,0-2.01,2.1,6.684,6.684,0,0,0-.75,3.24,6.838,6.838,0,0,0,.75,3.285,5.306,5.306,0,0,0,2.01,2.13,5.436,5.436,0,0,0,2.79.735,5.517,5.517,0,0,0,2.805-.735,5.273,5.273,0,0,0,2.025-2.13A6.772,6.772,0,0,0,60.51-8.25ZM58.68-21.36a2.99,2.99,0,0,1-.915,2.3,3.231,3.231,0,0,1-2.295.855,3.213,3.213,0,0,1-2.28-.87,2.977,2.977,0,0,1-.93-2.28,2.977,2.977,0,0,1,.93-2.28,3.213,3.213,0,0,1,2.28-.87,3.231,3.231,0,0,1,2.295.855A2.99,2.99,0,0,1,58.68-21.36Zm-1.59-.03a1.643,1.643,0,0,0-.465-1.215,1.568,1.568,0,0,0-1.155-.465,1.568,1.568,0,0,0-1.155.465,1.643,1.643,0,0,0-.465,1.215,1.7,1.7,0,0,0,.465,1.23,1.543,1.543,0,0,0,1.155.48,1.543,1.543,0,0,0,1.155-.48A1.7,1.7,0,0,0,57.09-21.39Zm18.3,5.16a5.871,5.871,0,0,1,2.13-4.32,7.647,7.647,0,0,1,4.98-1.56,7.866,7.866,0,0,1,3.525.735,5.3,5.3,0,0,1,2.25,1.995,5.382,5.382,0,0,1,.765,2.85,5.026,5.026,0,0,1-1.065,3.21A4.785,4.785,0,0,1,85.2-11.58v.15a5.543,5.543,0,0,1,3.09,1.89,5.688,5.688,0,0,1,1.14,3.69,6.086,6.086,0,0,1-.78,3.075A5.373,5.373,0,0,1,86.31-.63a8.307,8.307,0,0,1-3.75.78,7.988,7.988,0,0,1-5.22-1.665A6.445,6.445,0,0,1,75.06-6.24H77.7A4.53,4.53,0,0,0,79.17-3.3a4.817,4.817,0,0,0,3.36,1.14,4.329,4.329,0,0,0,3.195-1.1,3.836,3.836,0,0,0,1.1-2.835,3.593,3.593,0,0,0-1.5-3.24,8.318,8.318,0,0,0-4.53-.99H80.1V-12.6h.72a8.107,8.107,0,0,0,4.17-.915A3.011,3.011,0,0,0,86.4-16.26a3.312,3.312,0,0,0-1.035-2.55,4.187,4.187,0,0,0-2.955-.96,4.5,4.5,0,0,0-3,.96,3.891,3.891,0,0,0-1.35,2.58ZM92.55-8.28A9.234,9.234,0,0,1,93.57-12.7a7.4,7.4,0,0,1,2.805-2.955,7.694,7.694,0,0,1,3.975-1.05,7.3,7.3,0,0,1,3.75.93,6.2,6.2,0,0,1,2.37,2.34v-3h2.76V0h-2.76V-3.06a6.432,6.432,0,0,1-2.415,2.385A7.224,7.224,0,0,1,100.32.27,7.452,7.452,0,0,1,96.36-.81a7.575,7.575,0,0,1-2.79-3.03A9.436,9.436,0,0,1,92.55-8.28Zm13.92.03a6.684,6.684,0,0,0-.75-3.24,5.3,5.3,0,0,0-2.025-2.115,5.517,5.517,0,0,0-2.805-.735,5.524,5.524,0,0,0-2.79.72,5.223,5.223,0,0,0-2.01,2.1,6.684,6.684,0,0,0-.75,3.24,6.838,6.838,0,0,0,.75,3.285,5.306,5.306,0,0,0,2.01,2.13,5.436,5.436,0,0,0,2.79.735,5.517,5.517,0,0,0,2.805-.735,5.273,5.273,0,0,0,2.025-2.13A6.772,6.772,0,0,0,106.47-8.25Z" transform="translate(321 3231)" fill="#fff"/><path d="M18.75,0H16.02L5.04-16.65V0H2.31V-20.94H5.04L16.02-4.32V-20.94h2.73Zm6.06-19.11a1.8,1.8,0,0,1-1.32-.54,1.8,1.8,0,0,1-.54-1.32,1.8,1.8,0,0,1,.54-1.32,1.8,1.8,0,0,1,1.32-.54,1.712,1.712,0,0,1,1.275.54,1.822,1.822,0,0,1,.525,1.32,1.822,1.822,0,0,1-.525,1.32A1.712,1.712,0,0,1,24.81-19.11Zm1.32,2.67V0H23.4V-16.44ZM36.9-2.52,42-16.44h2.91L38.46,0H35.28L28.83-16.44h2.94Zm9.69-5.76A9.234,9.234,0,0,1,47.61-12.7a7.4,7.4,0,0,1,2.805-2.955,7.694,7.694,0,0,1,3.975-1.05,7.3,7.3,0,0,1,3.75.93,6.2,6.2,0,0,1,2.37,2.34v-3h2.76V0H60.51V-3.06A6.432,6.432,0,0,1,58.1-.675,7.224,7.224,0,0,1,54.36.27,7.452,7.452,0,0,1,50.4-.81a7.575,7.575,0,0,1-2.79-3.03A9.436,9.436,0,0,1,46.59-8.28Zm13.92.03a6.684,6.684,0,0,0-.75-3.24,5.3,5.3,0,0,0-2.025-2.115,5.517,5.517,0,0,0-2.805-.735,5.524,5.524,0,0,0-2.79.72,5.223,5.223,0,0,0-2.01,2.1,6.684,6.684,0,0,0-.75,3.24,6.838,6.838,0,0,0,.75,3.285,5.306,5.306,0,0,0,2.01,2.13,5.436,5.436,0,0,0,2.79.735,5.517,5.517,0,0,0,2.805-.735,5.273,5.273,0,0,0,2.025-2.13A6.772,6.772,0,0,0,60.51-8.25ZM58.68-21.36a2.99,2.99,0,0,1-.915,2.3,3.231,3.231,0,0,1-2.295.855,3.213,3.213,0,0,1-2.28-.87,2.977,2.977,0,0,1-.93-2.28,2.977,2.977,0,0,1,.93-2.28,3.213,3.213,0,0,1,2.28-.87,3.231,3.231,0,0,1,2.295.855A2.99,2.99,0,0,1,58.68-21.36Zm-1.59-.03a1.643,1.643,0,0,0-.465-1.215,1.568,1.568,0,0,0-1.155-.465,1.568,1.568,0,0,0-1.155.465,1.643,1.643,0,0,0-.465,1.215,1.7,1.7,0,0,0,.465,1.23,1.543,1.543,0,0,0,1.155.48,1.543,1.543,0,0,0,1.155-.48A1.7,1.7,0,0,0,57.09-21.39Zm18.3,5.16a5.871,5.871,0,0,1,2.13-4.32,7.647,7.647,0,0,1,4.98-1.56,7.866,7.866,0,0,1,3.525.735,5.3,5.3,0,0,1,2.25,1.995,5.382,5.382,0,0,1,.765,2.85,5.026,5.026,0,0,1-1.065,3.21A4.785,4.785,0,0,1,85.2-11.58v.15a5.543,5.543,0,0,1,3.09,1.89,5.688,5.688,0,0,1,1.14,3.69,6.086,6.086,0,0,1-.78,3.075A5.373,5.373,0,0,1,86.31-.63a8.307,8.307,0,0,1-3.75.78,7.988,7.988,0,0,1-5.22-1.665A6.445,6.445,0,0,1,75.06-6.24H77.7A4.53,4.53,0,0,0,79.17-3.3a4.817,4.817,0,0,0,3.36,1.14,4.329,4.329,0,0,0,3.195-1.1,3.836,3.836,0,0,0,1.1-2.835,3.593,3.593,0,0,0-1.5-3.24,8.318,8.318,0,0,0-4.53-.99H80.1V-12.6h.72a8.107,8.107,0,0,0,4.17-.915A3.011,3.011,0,0,0,86.4-16.26a3.312,3.312,0,0,0-1.035-2.55,4.187,4.187,0,0,0-2.955-.96,4.5,4.5,0,0,0-3,.96,3.891,3.891,0,0,0-1.35,2.58ZM96.3-13.38a6.454,6.454,0,0,1,2.46-2.4,7.278,7.278,0,0,1,3.69-.93,7.671,7.671,0,0,1,3.99,1.05,7.433,7.433,0,0,1,2.79,2.955,9.234,9.234,0,0,1,1.02,4.425,9.436,9.436,0,0,1-1.02,4.44,7.54,7.54,0,0,1-2.805,3.03A7.53,7.53,0,0,1,102.45.27a7.316,7.316,0,0,1-3.735-.93A6.326,6.326,0,0,1,96.3-3.03V0H93.57V-22.2H96.3Zm11.16,5.1a6.684,6.684,0,0,0-.75-3.24,5.192,5.192,0,0,0-2.025-2.1,5.606,5.606,0,0,0-2.8-.72,5.46,5.46,0,0,0-2.775.735,5.374,5.374,0,0,0-2.04,2.13A6.6,6.6,0,0,0,96.3-8.25a6.664,6.664,0,0,0,.765,3.255,5.374,5.374,0,0,0,2.04,2.13,5.46,5.46,0,0,0,2.775.735,5.517,5.517,0,0,0,2.8-.735,5.273,5.273,0,0,0,2.025-2.13A6.838,6.838,0,0,0,107.46-8.28Z" transform="translate(484 3226)" fill="#fff"/><path d="M18.75,0H16.02L5.04-16.65V0H2.31V-20.94H5.04L16.02-4.32V-20.94h2.73Zm6.06-19.11a1.8,1.8,0,0,1-1.32-.54,1.8,1.8,0,0,1-.54-1.32,1.8,1.8,0,0,1,.54-1.32,1.8,1.8,0,0,1,1.32-.54,1.712,1.712,0,0,1,1.275.54,1.822,1.822,0,0,1,.525,1.32,1.822,1.822,0,0,1-.525,1.32A1.712,1.712,0,0,1,24.81-19.11Zm1.32,2.67V0H23.4V-16.44ZM36.9-2.52,42-16.44h2.91L38.46,0H35.28L28.83-16.44h2.94Zm9.69-5.76A9.234,9.234,0,0,1,47.61-12.7a7.4,7.4,0,0,1,2.805-2.955,7.694,7.694,0,0,1,3.975-1.05,7.3,7.3,0,0,1,3.75.93,6.2,6.2,0,0,1,2.37,2.34v-3h2.76V0H60.51V-3.06A6.432,6.432,0,0,1,58.1-.675,7.224,7.224,0,0,1,54.36.27,7.452,7.452,0,0,1,50.4-.81a7.575,7.575,0,0,1-2.79-3.03A9.436,9.436,0,0,1,46.59-8.28Zm13.92.03a6.684,6.684,0,0,0-.75-3.24,5.3,5.3,0,0,0-2.025-2.115,5.517,5.517,0,0,0-2.805-.735,5.524,5.524,0,0,0-2.79.72,5.223,5.223,0,0,0-2.01,2.1,6.684,6.684,0,0,0-.75,3.24,6.838,6.838,0,0,0,.75,3.285,5.306,5.306,0,0,0,2.01,2.13,5.436,5.436,0,0,0,2.79.735,5.517,5.517,0,0,0,2.805-.735,5.273,5.273,0,0,0,2.025-2.13A6.772,6.772,0,0,0,60.51-8.25ZM58.68-21.36a2.99,2.99,0,0,1-.915,2.3,3.231,3.231,0,0,1-2.295.855,3.213,3.213,0,0,1-2.28-.87,2.977,2.977,0,0,1-.93-2.28,2.977,2.977,0,0,1,.93-2.28,3.213,3.213,0,0,1,2.28-.87,3.231,3.231,0,0,1,2.295.855A2.99,2.99,0,0,1,58.68-21.36Zm-1.59-.03a1.643,1.643,0,0,0-.465-1.215,1.568,1.568,0,0,0-1.155-.465,1.568,1.568,0,0,0-1.155.465,1.643,1.643,0,0,0-.465,1.215,1.7,1.7,0,0,0,.465,1.23,1.543,1.543,0,0,0,1.155.48,1.543,1.543,0,0,0,1.155-.48A1.7,1.7,0,0,0,57.09-21.39ZM75.12-2.19q3.81-3.06,5.97-5.025a24.222,24.222,0,0,0,3.645-4.11A7.4,7.4,0,0,0,86.22-15.54a4.633,4.633,0,0,0-.945-3.075A3.764,3.764,0,0,0,82.23-19.74a4,4,0,0,0-3.165,1.275A5.316,5.316,0,0,0,77.85-15.06H75.21a7.206,7.206,0,0,1,2.04-5.19,6.881,6.881,0,0,1,4.95-1.83,6.863,6.863,0,0,1,4.9,1.71,6.158,6.158,0,0,1,1.815,4.71,8.973,8.973,0,0,1-1.485,4.845,21.24,21.24,0,0,1-3.375,4.14Q82.17-4.89,79.23-2.52H89.55V-.24H75.12Z" transform="translate(363 3359)" fill="#fff"/><path d="M18.75,0H16.02L5.04-16.65V0H2.31V-20.94H5.04L16.02-4.32V-20.94h2.73Zm6.06-19.11a1.8,1.8,0,0,1-1.32-.54,1.8,1.8,0,0,1-.54-1.32,1.8,1.8,0,0,1,.54-1.32,1.8,1.8,0,0,1,1.32-.54,1.712,1.712,0,0,1,1.275.54,1.822,1.822,0,0,1,.525,1.32,1.822,1.822,0,0,1-.525,1.32A1.712,1.712,0,0,1,24.81-19.11Zm1.32,2.67V0H23.4V-16.44ZM36.9-2.52,42-16.44h2.91L38.46,0H35.28L28.83-16.44h2.94Zm9.69-5.76A9.234,9.234,0,0,1,47.61-12.7a7.4,7.4,0,0,1,2.805-2.955,7.694,7.694,0,0,1,3.975-1.05,7.3,7.3,0,0,1,3.75.93,6.2,6.2,0,0,1,2.37,2.34v-3h2.76V0H60.51V-3.06A6.432,6.432,0,0,1,58.1-.675,7.224,7.224,0,0,1,54.36.27,7.452,7.452,0,0,1,50.4-.81a7.575,7.575,0,0,1-2.79-3.03A9.436,9.436,0,0,1,46.59-8.28Zm13.92.03a6.684,6.684,0,0,0-.75-3.24,5.3,5.3,0,0,0-2.025-2.115,5.517,5.517,0,0,0-2.805-.735,5.524,5.524,0,0,0-2.79.72,5.223,5.223,0,0,0-2.01,2.1,6.684,6.684,0,0,0-.75,3.24,6.838,6.838,0,0,0,.75,3.285,5.306,5.306,0,0,0,2.01,2.13,5.436,5.436,0,0,0,2.79.735,5.517,5.517,0,0,0,2.805-.735,5.273,5.273,0,0,0,2.025-2.13A6.772,6.772,0,0,0,60.51-8.25ZM58.68-21.36a2.99,2.99,0,0,1-.915,2.3,3.231,3.231,0,0,1-2.295.855,3.213,3.213,0,0,1-2.28-.87,2.977,2.977,0,0,1-.93-2.28,2.977,2.977,0,0,1,.93-2.28,3.213,3.213,0,0,1,2.28-.87,3.231,3.231,0,0,1,2.295.855A2.99,2.99,0,0,1,58.68-21.36Zm-1.59-.03a1.643,1.643,0,0,0-.465-1.215,1.568,1.568,0,0,0-1.155-.465,1.568,1.568,0,0,0-1.155.465,1.643,1.643,0,0,0-.465,1.215,1.7,1.7,0,0,0,.465,1.23,1.543,1.543,0,0,0,1.155.48,1.543,1.543,0,0,0,1.155-.48A1.7,1.7,0,0,0,57.09-21.39ZM74.73-19.2v-2.49h5.64V0H77.61V-19.2Z" transform="translate(298 3492)" fill="#fff"/></g></svg>