<svg xmlns="http://www.w3.org/2000/svg" width="623" height="666" viewBox="0 0 623 666">
  <g id="Group_4" data-name="Group 4" transform="translate(-1152 -2012)">
    <rect id="Rectangle_10" data-name="Rectangle 10" width="623" height="666" transform="translate(1152 2012)" fill="#fff"/>
    <rect id="Rectangle_8" data-name="Rectangle 8" width="385" height="638" transform="translate(1321.5 2025)" fill="none"/>
    <g id="sverige" transform="translate(1318 2014.063)">
      <g id="Lan">
        <path id="AB" d="M189.375,423.688l-.187,2.375-.687,1.5-1.5-.437-2.312-.5-.437,2.313-.5,2.25-1.875.625,1.5,1.875-.937.375L182,440l-1.687,1.75-3.687,1-1.062,3.625h-.5l-.5.125-.187-.125-.625.563h-.5l-.75.625-.437.25-.437.063-1.875.75.125.313-.437.25-.25-.187-.5-.062-.562.313-.25.688-.437-.062-.187-.562-.562-.125-.312-.437h-.687l-.687-.125.125.875-.625.313-.687.688.188.25-.312.563-.375.063-.312.375-.312.75.063.813.938.875-.125.625.063.313.063.313-.25.75-.312.25-.375.313-.062.25.125.313.875,1,.188-.062-.125-.312.125-.312.313-.062.188.25v.938l.125.375h.375l.125-.312-.187-.312-.062-.25.313-.437.5.063.5.375.438.25.063.438.25.313.063.75.375.188.313.063v.25l.25.063.25-.375v-.937l.188-.812.25-.062.25.688.375-.25.25.25-.125.313-.062.125-.062.125-.437,1.5-.062.563.125.375.25.25.25.375.813.875.625.625.938.5.188.438.25.188.438.125.438.438.25-.062.375-.125.125-.5.063-.5.063-.187.125.063.438.5.438.188h.375l.5-.125-.062.375-.062.063-.5.125-.562.188H174l-.187.188-.562.125-.5.25-.437.188-.375.313-.562.313-.125.5.188.25v1.313l-.187.375-.187-.375-.187-.5-.437-.25h-.875l-.562.125-.5-.187-.5.438-.5-.5-.25-.5-.562-.312-.687-.187v.313l-.5.063-.25-.187-.437.188-.125.438.125.25.188.188.063.313.188,1,.313.875-.062.313-.375-.062-.187-.375-.437-1-.312-.937-.25-.375h-.562l-1.875-1-.687-.812H160.5l-.562-.437-.25-.062-.187-.312-.375.125.063.375.25.25-.062,1.188.125.313.813,1.313.125.375-.812-.375-.562-.25h-.687l-.687.25-.437-.75-1.062,1.25.375,2.375,1.25,2.25-.25,4.25,1.875,2.625,3.75-.062.125,1.125,1.813.875.5,2L166,483.5l.5.125.438.188.25-.25.188-.875-.062-1.437-.187-2.25-.062-.562-.375-.25-.312.25-.125.813-.062.625-.375.875-.25.188-.187-.625-.062-1.875.438-.75-.062-.25-.312-.25v-.375l.188-.187.625-.5-.125-.187.188-.312.188.063.25-.062.125-.187v-.5l-.125-.687-.437-.75-.062-.375.25-.25.188.188.125.375.125.5.188.25.25,1.313-.25.813v.625l.063.75.375.063.688-.25.063-.562-.187-.875.125-.312.875-.562-.062.438.188.625-.312.188-.187.563.125.5-.25.375-.312.563v.5l.313.688.25,1.375-.187.5-.062.375.313.375-.062,1.75-.125.313.188.438.563.563.563,1.125.563,1.188-.062.75-.312.5-.437.563v.5l1.5-.5.563-2.25.375-.375.375-1.187.5-.625.563-.375.25-1.062-.25-1.5.375-1.125.063-.437.125-.5.188.25.125.438.188-.062.125-.187-.062-.375-.25-1.187.063-.25.313.063.063.375.25.125.188-.25v-.375l.188-.437.375-.187.563-.062.313-.125.125-.437.188-.312.625-.187.125-.25,1.125-.437.375-.312.125-.25-.187-.187L179.5,475l.313-.187.5-.062.25.188.063.188-.25.25h-.25l-.25.188-.125.313.188.188-.062.188-.25.125-.375.375V477l.063.25.313-.125.313-.375.563-.312,1.188-.437.375-.375-.062-.312-1.125.125.375-.687.688-.312.313-.187.375.063h.188l.563-.625.25.063.063.188h.25l.313-.187.313-.187.5-1.187-.187-.125-.375.125-.375.125-.75-.312-.312-.312.188-.562.5-.312.188-.25-.437-.812-.375-.062-.375-.125-.437-.5-1.25-.875-.562-.062-.187-.187L180.25,468l.125-.187h.375l.875.188.438.125.25-.125-.062-.312-.375-.125-.562-.125-.125-.312-.187-.437-.375-.125-.5.063h-.875l-.187-.25-.062-.75v-.562h-.187l-.437.25-.875.438-.5.125-.437-.062L176,465.75l-.312-.187V465.5l.25-.125-.125-.25.438-.062.438.438.375.063.313-.187v-.312l-.312-.5-.687-.5L175.5,463l.625-.687.125-.562v-.687l.125-.25.313-.312-.125-.25.75-.562.25-.125.125.438.063.25h.313l.563-.312.125.125v.688l-.187.125-.437-.187-.187.313-.062.563v.5l.5.125.375.063.375.188,1.313-.125.563-.187.188-.25-.187-.187h-.562l-.062-.125.25-.187.125-.187-.375-.5-.187-.25-.437.063-.25-.062-.125-.187.125-.25.438-.062.375.188.5-.125.25-.25.125-.375-.125-.25-.312-.062-.312-.187.188-.25.375-.062.188.25.188.125.313-.125H182l.125.313.375-.062.313.063.313-.062.438-.812V458l.125-.187.5-.125.375-.375.313-.562.188-.125.938-1.062.438-.062.188-.312.75-.562.688-.5.5-.312.875-.562,1.25-2.187.313-2.5,2.688-1.5,3.688.25,1.313-.937-.25-2.062-2.312-.687-.125-2h1.688l.875-2.5-1.5-1.25-2.25-1.625-1.75-2.937-1.125-4.125L191,428.5l.313-3Zm5.75,25.688-1.375.813-1.062,1.875-1.187,1.063.438.375,1.938-1.5,1.125.188.125-1.187,1.313-.125v-.937Zm-5.812,4.563-.375.25-.187.25-1.062.625-.125.438-.312.375-.187.188v.313l-.187.25v.125l.375.063.188.063-.125.375-.25.375-.312-.125-.062-.312-.25-.062-.312.125-.125.438.188.125.125.188-.062.5.063.313.375.25.125.313v.875l.375-.062.25-.437.063-.562.063-.25h.313l.188-.187v-.625l-.187-.562.125-.375.188-.187.313.063.375-.187.188-.5.375-.625.188-.312.375-.062v-.25l-.25-.125-.062-.5h-.312v-.187l.188-.25ZM195,459l-.437.188-.312.375-.187.313v.313l.125.438-.062.313-.25.375-.062.375.188.125.375-.25.063-.25.125-.25.375-.312.313-.375.063-.5.25-.062.188-.187v-.375l-.125-.25H195Zm-13.437.688-.187.25-.062.313-.125.438.313.25.438-.5.563-.125-.062-.187-.375-.125-.25-.312Zm-16.75.125L164.5,460l-.062.125.125.25.063.5.625,1.313.188.75.438,1,.625.938.438.75h.375l.188.188.313.5.688.188.438-.125.188-.375-.062-.375-.25-.25.063-.312v-.687l-.125-.562-.25-.437-.062-.25-.687-.687-.125.125.063.313L167.5,463l-.25-.125-.312-.562L167,462l.25-.125h.25l.125-.125-.5-.5-.437-.187-.312.188L166,461l-.5-.562-.312-.187Zm31.25.5-.25.188-.062.375-.312.188.188.313-.062.875.125.25h.438l.125-.25-.125-.812.438-.687-.062-.312ZM185,460.688l-.25.188-.25-.062-.187.125.063.188.125.25.313.125.125.25.125.438v.375l-.125.438-.062.375.063.188.125.25.125.188v.438L185,465.625V466l.313.188h.313l.813.5.5-.125,1.188-.25.563-.125.313-.375.125-.5.063-.437-.25-.437-.5-.25-.687-.25-.5.125-.187-.312.5-.125.5-.062.25.063.25-.062.25-.187v-.312l-.187-.25h-.312l-.437.25-1.562-1-.375-1.125-.125-.125-.5-.062ZM164.063,461l-.437.125-.312.125-.375.313.063.5.125.438.125.313.25.125.188-.062h.25l.375.938.25.25.375-.062.063.375-.125.313.313.125.125.688-.062.313v.375l.188.25.375.188.875.438,1,.813.875-.062.313.063.188.188.688.188.625-.312.125-.125-.125-.312-.75-.375.063-.187-.312-.062-.562.25-.312-.062-.625-.25-.812-.5-.5-.375-.625-.125-.5-1.75L164.375,461Zm-2.062.438-.5.188-.062.375.063.25v.313l-.062.25.063.188.438.438.188.375-.062.375.25.5.375.375.313.063.188-.312-.125-.5.063-.312.125-.25v-.375l-.25-.25-.312-.937-.312-.375-.062-.312Zm14.688.875-.187.125v.188l.063.188.313.125.188.25v.313l.063.25.375.563.5.188h.563l.375-.187.313-.187.125-.312-.125-.187-.062-.125.125-.125.375-.062.188-.062-.062-.25-.375-.125-.312.188-.25-.062-.687-.125-.625-.312-.5-.187Zm13.188.125-.75.313.688,1.125.188.625v.5l-.062.813.188.125.25-.125.563-.375.375-.312.125-.437v-.625l-.062-.5-.25-.5-.625-.437-.25.25Zm5.375.688-.187.063-.25.313-.125.313-.125.625-.062.625-.187.25.813.063.188-.187-.25-.375-.062-.25.25-.562v-.312l.313-.187-.062-.25Zm-13.937.438-1,.063-.062.375-.25.125-.562.313-.062,1.125.063.313v.188l.313.188.563.063.5-.25.313-.312.125-.312.063-.75.625.125.313.125.438-.062.25.125-.187.313-.375.25-.125.188.188.688-.187.188-.187.188.313.188.813.063.438.688.438.188.25.688.625.375.5.063.313.688,1,.25.25-.187.313-.312.375-.187v-.5l.625-.187.25-.312.375-.125.438-.125-.062-.25,1.125-1.375-.125-.25-1.625.5-1.687.25v.25l.313.25-.125.25H187l-.75-.312-.25-.312-.5-.375-.625-.187-.687.188-.25-.25.125-.437.438-.687.063-.187-.187-.187.313-.187v-.312l-.75-.687-.5-.187-.875.125-.312-.125-.5.063Zm-11,.688-.5.063-.125.25L169.5,465l.063.313.625.75.313.5.375.063.375-.312.063-.5.063-.187.188-.125-.062-.312h-.25L171,465l-.312-.562Zm22.313,1.688-.312.125-.625.5-.312.25-.187.563v.438h.25l.375-.125.375.188.313-.312.125-.625.5-.562Zm-1.812,3.875-.25.313-.187.313-.5.938-.062.313.375-.312.375-.25.5-.187.375-.125.313-.187.125-.437h-.312l-.625.313.125-.562Zm-5.25,4.75-.062.063-1.187,1.438-1,.438-.062.188.188.063v.188l-.625.875.063.188.313-.062.063.188-.125.125-.187.25-.187.25.063.563.5.25.563-.187.125.375h.313l.25-.375.125-1.687.625-.625v-.625l.563-.5.188-.437Zm-7.125,4.25-.687.375H177l-.25.125-.187.313v.063l.063.375-.062.313-.5.5-.062.188.063.563-.125.313.125.063.375-.125.188-.187.188-.5.25-.125.188.188.063.375.25.188.438-.125.25-.25-.312-.562-.062-.375.25-.187.25.125.188-.187-.062-.375.188-.375.375-.062.313-.187.125-.25h-.312Zm4.5,2.125-.312.188-.25.375-.75.5-.437-.125-1.437.875-.25.188-.687.563-.562.5.063.375.188-.062.375-.187.375-.375.125.188v.375l.688.063.25-.187.25-.25.313-.187.438.125.75-.437-.25-.312-.375-.25.188-.312,1.25-.75.188-.187v-.5Z" fill="#0fc100" stroke="#000" stroke-width="0.1" fill-rule="evenodd"/>
        <path id="C" d="M157.313,404.375l-.937,8.438-2.187,2v5.563l-2.25,1.938-4.5-.75-.937,1.125.438,1L145,425.563l-1.75.063.375,3.813-.937.375.688,3.188-.687,1.438L145,436.313l.25,2.188-.5,1.063,1.313,1.813-.75,1.938-1.25,1.75,1.188,2.25L147.063,450l.938,4.938,1.625,1.625,1.625-1,1.438-.375,2.688,1.188,2.938,2.563,2.063.063-.125-2.437-1.687-3.5.25-.437.75-.375.125.813.25.625.688.938.75,1,.813.563.438-.062.313-.5.313-.687.313-.125.125-.625-.937-.875-.062-.812.313-.75.313-.375.375-.062.313-.562-.187-.25.688-.687.625-.312-.125-.875.688.125h.688l.313.438.563.125.188.563.438.063.25-.687.563-.312.5.063.25.188.438-.25-.125-.312,1.875-.75.438-.062.438-.25.75-.625h.5l.625-.562.188.125.5-.125h.5l1.063-3.625,3.688-1L182,440l.438-5.937.938-.375-1.5-1.875,1.875-.625.5-2.25.438-2.312-.187-2.562h1.438l.625-1.25L185.625,421l-1.937-1.562,1.938-.187.313-1.5-1.625-.5-1.687-2.75-.937-4.062-.812.438-.062,2,1,4-.812,1-2.25-.625-4-3.437-2.5-3.25-.312-3-1.875-1.25-2.687,1.25-1.25,2.188-1.75.375-1.25-3.25v-2.5Z" fill="#afc8ff" stroke="#000" stroke-width="0.1" fill-rule="evenodd"/>
        <path id="D" d="M150.625,458.063l-1.062.5-.375,1.625L146.5,459l-1.25.563-1.937.188L141,460.5l-2.125-.437-2.312.5-4.437.313L132,462.188l1.125.875-.25,1.125-2.937.688-2-.312-1.312-.5-1.687,1.5-1.687,2,3.375.25,1.688,1.25,4.5-1.5,1,.125-.875,1.5L131,470l-2.562.25-1.625.688-2.625.938L124,473.563l-1.125,1.125-1.625-.187.063,1.375-2.25.313-1.25,2.063-.5,2.063.625,1,2.625,1.063,1.25-2.687,1.188.625.438,1.188,2.313,1.563,2.313,1.063,1.063,2.063,1.688,1.875,1.438.375.625.938,2.813,5.5,4.25.125,3.5,1.188,1.5,2.188,1.688.188,2,.188,2.625-.937-.062-1-2-.562,1.063-.562,1.375.188,1.5,1,1-1.687-1.187-1.125-1.75-1.562,1.625-.625,1.188,1.25,1.25-.062,2.438.563,1-1.187,1.563.313.313-2.062.688.125.438.125,1.25-.187-.687-.75.375-2.937,1.625,1.313.75-.562-.562-1.25,1.188-1.25-.5-2-1.812-.875-.125-1.125-3.75.063-1.875-2.625.25-4.25-1.25-2.25-.375-2.375,1.063-1.25-.687-1.687,1.25-.937-.25-1.437-.687-.187,1.188-1.562L157,460.5l-3.187-.75-.625,1,.813,2.813-1.75.125-.937-3,.688-1.625Z" fill="#c400ff" stroke="#000" stroke-width="0.1" fill-rule="evenodd"/>
        <path id="E" d="M121.813,479.688l-1.25,2.688-2.625-1.062L115.5,484l.875,1.563-1.062,1.625-2-.062-.5,2.125-.75-1.312-1.187.563-2.187-1.312-1.437,1.75-1.312.063-1.125,1.438-.937,1.813-.5,1.75-2.187,1.25-.312,3.063-1.687,2,1.688,1.375,1.438.313.813.75-1.5.938L100.688,506l-1.5.688-1.062-1.125L97.063,506,97,507.5l-2.812,2.313-.375,1.563-.5,1.563.313,1-.625,1-.625,3.125L91,522.625l1.625.688,3.5-.562.188,1.438,3.438-.687.938-1.875,1.188.625,1.063,4,.563,1.5-.875,1.063-.812,1.938.5,1.813,1.75,2.125-.312,1.125.875,3.125,1,2.375,3.563-.375,3.25.75.313-2.125.688-.937,1.5.25.5-1.625,1.375-1.25-.25-1.375,2.188-.5,2.688.875.375,1.5,1.813-.937,1.313.938,2.438-2.25,1.188-.125L127.375,530l1.125-.875-2-2.937.375-2.437,2.25-.062.625,1.188,1.438-.187-.625-1.875.688-.75,1.813-1.562,1,1.125L136,520.75l2.438,3.125.75-1.5,1.5.75L142,528.188l1.875.313,1.438-1-1-2.125,1.563-1-2-2-.375-1.437,2.25,1,1.188-3.062-1.312-2-2.125-1.5,4.063-.875.875-2.187-1.875-1.437-2.312-.187-.625-1.562-2.25-.687-.812-1.187,1.188.125,2.625.5,2.625-1L148.75,504l-1.875-1.875-2.812-2.187-3.437-1.562-3.625-.25-.5,2.125-1.312-1.625-1.937.813-.812-.375.063-1.562.938-.875,2.438.375h1.688l3.25.813,2.5.438,1.625.125-1.5-2.187-3.5-1.187-4.25-.125-2.812-5.5-.625-.937-1.437-.375-1.687-1.875-1.062-2.062-2.312-1.062-2.312-1.562L123,480.313Z" fill="#afc8ff" stroke="#000" stroke-width="0.1" fill-rule="evenodd"/>
        <path id="F" d="M80.625,520.313l-.062,3.5L79.5,525.125l-.125.813-2.687.813-.187-1.125-1.812-.812-.75.5-1.187-.687-.562.125-.5,1.688-1.25,1.438-.062,2.063.938,2.563-.25,1.813L71,538l-.875,1.313L70,540.625l.688,1.813-.375,1.25-1.187.563-.125,1,.188,2.125-.437,1.25-1.125.813-3,4.5L64,555.563l-1.437.75v1.125l-1.125.25-.437.875L59.063,559l-.625,2.563-1.125-.437-.75,1L56,564.375,54.75,566l-1.25.938.063,1.5.938,3,2.313-2,.25-1.437,1.063.563,2.25-.937,2.563.5.625-.625.25,1.5.75-.187,2.063,1.313-.5,1.75.688,1.5,1.625.625L69,570.938l1.125-.687,1.813.25,1,2.625,1.5-.75.313-1.125,2.25-.562,1.375.438.938,1.063.563-.437,1.438,2.438.188,1.938,1.063,2.5,1.125.625,1.25-.687,1.375-3.312-1.5-1.937-.25-1.625.5-.75.125-4.312h1.188l2.5-.062,1.438-.312.25-1.5,1,.188.438-.625,1.563-.187L95,563.25h1.5l1.625.875,1,1.125.375,2.313,1.438-.125.5-1.125,1.063-.25,1-.687.5-.75,1.75.125-1.062-1.625h1.5l1.125.875,4-.625,3.875,1.563-.812-2.125-.812-.625-.125-2.437,1.188-.812-.437-2.062.375-.875-.125-2.5,1.188-.937,1.375,1,.125-2.125.75-.75-.375-1.312-1.062-.937,1.875-2.375-3.5-2.75-1.75-.375-.625-1.25-3.25-.75-3.562.375-1-2.375-.875-3.125.313-1.125-1.75-2.125-.5-1.812.813-1.937.875-1.062-.562-1.5-1.062-4-1.187-.625L99.75,523.5l-3.437.688-.187-1.437-3.5.563L91,522.625l-1.75,2.813-.5,1.938-2.437,1.563L84.563,532l-.5,2.188-.25,2.688-1.25.125-.75.563-.687-.5.25-1.875L81,533.25l-.687-.625.188-3.375,1.063-1.812.938-3.125.563-3.687Z" fill="#afc8ff" stroke="#000" stroke-width="0.1" fill-rule="evenodd"/>
        <path id="G" d="M104.688,563.125l1.063,1.625-1.75-.125-.5.75-1,.688-1.062.25-.5,1.125-1.437.125-.375-2.312-1-1.125L96.5,563.25H95l-1.437.875L92,564.313l-.437.625-1-.187-.25,1.5-1.437.313-2.5.063H85.188l-.125,4.313-.5.75.25,1.625,1.5,1.938-1.375,3.313-1.25.688-1.125-.625-1.062-2.5-.187-1.937-1.437-2.437-.562.438-.937-1.062L77,570.688l-2.25.563-.312,1.125-1.5.75-1-2.625-1.812-.25L69,570.938,68.438,574l.188,1.125-.937,2.75-1-.312-.25.75-2,.063-1.187,1-.437-.562-2.5.75-.812-.5-1.125,1.063.5,3.5v3.688L60,588.75l.688,2.313L61,592.375l.688.75.688,2.625-.75,1.938.563.875-.437,1,1,1,2.063.125,3.313-.75L70.313,599l2.063.063,1.563-.812h2.25l1-1.625.25-1.25,1-.062.813,1.188,2.625.813.438-.562,4.125,1.188,2.75,1.125,1.875.313,1.813,2.375,1.063.5,2.375.438,2,.875,1-.875,1.25-2.562,1.375-1h2.75l.188,1h1.5l.25-1.187,1.25-.812,1.125,1,1.063-1.187.188-2.625.75-.687-.25-2.125,1.5-1.937-.312-1.187.313-2-1.562-2.937,2.063-.875,2.625-.312.25-1.437-1-2.875V578l1.125-.5,2.438.875,1.063-.25,2.938-.25.813-2.562-1.062-2.187-1.562-2.187-1.875-.75-.875-2.062-2.312-1,.5-1.5-.625-.687-3.875-1.562-4,.625-1.125-.875Z" fill="#afc8ff" stroke="#000" stroke-width="0.1" fill-rule="evenodd"/>
        <path id="H" d="M133.063,520.5l-1.812,1.563-.687.75.625,1.875-1.437.188-.625-1.187-2.25.063-.375,2.438,2,2.938-1.125.875,1.188,4.125-1.187.125-2.437,2.25-1.312-.937-1.812.938-.375-1.5-2.687-.875-2.187.5.25,1.375-1.375,1.25-.5,1.625-1.5-.25-.687.938-.312,2.125.625,1.25,1.75.375,3.5,2.75-1.875,2.375,1.063.938.375,1.313-.75.75L117,553.563l-1.375-1-1.187.938.125,2.5-.375.875.438,2.063-1.187.813.125,2.438.813.625.813,2.125.625.688-.5,1.5,2.313,1,.875,2.063,1.875.75,1.563,2.188L123,575.313l-.812,2.563-2.937.25-1.062.25-2.437-.875-1.125.5v.938l1,2.875-.25,1.438-2.625.313-2.062.875,1.563,2.938-.312,2,.313,1.188-1.5,1.938.25,2.125-.75.688-.187,2.625,1.563-.562,2.188.813.25-1.5,1.875.688.625,1.438,1.25-.062.438,1.25.563,1.125,1.375.438,1.625,3.125,1.438,1,2.438-.125,1.125.813,1.625-.812.813-3.687.938-3.125,1.063-1.125.625-2.125.938-.375-.062-2.187.313-1.375,1.125-2.25,1.875-.437,1.063-4.687,1.063.938.813-.937L138.313,583l-.937.563.75-4.187.563-2.5-.125-2.062.875-2.5,2.25-3.375-2.125-1-.937-3,.875-1.812-.437-2.25,1.938-1.5-.312-2.5,1.75-.062.938-2.5.813-2.75-.562-1.687-2.25-2.687,2.25-.25.875-.812v-1.5l-1.625.625L142,544.063l.688-1.812,1.438-.875-.062-2.25-1.812-1.25-2.125-3.062,1.625-2.437,2.125.438L145.313,534l.5-2.75-.5-3.75-1.437,1L142,528.188l-1.312-5.062-1.5-.75-.75,1.5L136,520.75l-1.937.875Zm20.5,36.438-1,.875-1.375,2L151,562.125l-.25,1.5-1,.625.313,1.563-.625,2.375-1.125,2.438-.75,1.938-1,1-.812,2.25-.75,2.875h-1.5l-1,.875-.875,2.75L140.313,585l-1.562,3.938-.437,2.438L137,593.688l-.187,1.875.188,4.75.5.25-.125,7.375.5.813-.187,2.375,1.688-1.5.813-2.625,1.625-3.937-.375-1.562,1.063-2.562.75-2.875.188-2.125,1.313-1.375-.187-1L145,589l1.875-6.875,1.188-.312.688-1.687-.062-1.437.563-1.062.063-3.187,1.375-1.25-.625-1.5,1,.063.875-3.187,1.25-2.75.625-.625v-2.812l-.375-1.062.625-1.562,1.25-.687-.437-1.812-.75.375Z" fill="#afc8ff" stroke="#000" stroke-width="0.1" fill-rule="evenodd"/>
        <path id="I" d="M193.688,529.562l1.687,3.625,1.063-3.125,1-1.062,3.5.687,1.25-1.062.437-1.875,1.813-1.188,2.062.688,1.375-.188.438,1-.688.813-1.812.062-1.5.563-.563.687.5,1.188-.875,1.875-1.562,1-.813.562.125,1.75-1.562.063-.125,2.875-1.875.125-1.313-.875-.187,2.5-.75,3.312.875.563-.25,2.812-.75,1.438,1.125,2.187,1.625,1.125,1.562.375-.75,2-1.937.688-1.563.5L193.563,558l.062,1.437,1.063.688-.875,1.687L191,562.875l-.375,1-3.5,2.75,1,.5-2.562,2,.125,3,1.375.562-1.75,2.563-2.75,1.937-1.688-.125,1.375-3.25.188-1.937,1.625-1.063.625-1.375-.313-1.062-1.562,1.312-.563-.312.313-2.75-1.125-.813-.75-.687v-3.563l-1.375-.437.312-1.813,1.25-1.5.313-3-.938-1.187-.562-2.438-.563-2.25.375-1.812,1.938-2.438,1.375-.625,1.625-2.375,1.75-3.5.75-2.937,1.312-1.125h0l1.375-.5,1.188-.375.437-1.938,1.125-1Z" fill="#0fc100" stroke="#000" stroke-width="0.1" fill-rule="evenodd"/>
        <path id="K" d="M114.063,596.688l-.25,1.5-2.187-.812-1.562.563L109,599.125l-1.125-1-1.25.813-.25,1.188h-1.5l-.187-1h-2.75l-1.375,1-1.25,2.563-1,.875-2-.875-2.375-.437-1.062-.5-1.812-2.375-1.875-.312-1.437,2.563-1.5.375-.625,2.375L86.188,606l.5,1.5.188,2.063,1.313.563,1.5-.25.563,1.188.438,5.313-1,.5-.25,1.313L91,619.5l1.438.75,1.625.125,1.5-1.687L94,617l-.937-2.125L93,612.938l1.375.313,1.063.063,1.938-.25,2.625-.125,1.813-.062,1-1.125.938,1.125,1.75.063,2.313-.375,1.063-.375.563,2,1.813-1,.625-1.187,1.188,1.313,1-1,1.688-.625.875.625,2.563-.437L120.5,613l-.437,1.375-1.625,1.563,1.188.438,2-1.187,1.688,1.5,1.563-3.437L126,612.5l1.375-2.875,1.063-4.062-1.625.813-1.125-.812-2.437.125-1.437-1-1.625-3.125-1.375-.437L118.25,600l-.437-1.25-1.25.063-.625-1.437Z" fill="#c400ff" stroke="#000" stroke-width="0.1" fill-rule="evenodd"/>
        <path id="M" d="M78.438,595.313l-1,.063-.25,1.25-1,1.625h-2.25l-1.562.813L70.313,599l-2.187.938-3.312.75-2.062-.125-1-1-.937.813-1.062-.125-2,1.188-1.562,1.5-1.125,1.125L53.813,603l-4.125-.687L48.563,602l.688-2.5-1.687-1.125-1.5.625-1.25-.937-1.687-.75-1.25.5-1.312,1.063.125,1.813,1.375.438,1.25,1.125.563,1.688,1.25,1.313.688,1.5-.562,1.375-1,.688-.625-.187-.875-.312H42l-.625-1-2-1.187-2.312-1.562-1.187.125,1.063.875.813,1.5.313,1.438.438,2.875.25.813.875,1,1,1.625,1.25,1.563,1,1.938.438,2.313,1.375,4.25,1.813.438.5,1.75.125,2.375-.312.25-.375.5.375.688.75-.375.313.688-.312.5.438.188h.625l.938.75.438.313.313.938v.375l-.375.938V636l-.187.563-1.062.25-.812.563-1.375.813-.5.5v.875l.125,1.188.5,1.25.313.813.25.813-.125,1.063-.375,1.063-.312.563-.625-.125-.75-.312-.25-1-.125-.312-1.375,2.813,1.563-.562.5.125.375.438h.438L46.25,647l.375-.187.813-.187.938.688,1.25.875h.625l.938-.187,2.438.625,1.313.75.625.25.875-.125.438.5,1.188-.75,1.063-.062L60,648.5l.875-.312,2.875.125,1.5-1.812h1.375l.938-.562,3,.25,1.75-.375,1.063.438,2.688,2.063,1.125-.125,2.313.375.5-.875,1.375-2.5,1.938-2.062.875-1.75-.312-2.062-1.375-1.25-.437-2.687L80.5,634.313l-.375-3.062.313-3.187,1.938-3.5L83.5,624l.875-2.062,2-1.187,1-1.875,2.063-.687.25-1.312,1-.5-.437-5.312-.562-1.187-1.5.25-1.312-.562-.187-2.062-.5-1.5-.562-1.625L86.25,602l1.5-.375,1.438-2.562-2.75-1.125-4.125-1.187-.437.563L79.25,596.5Z" fill="#fff027" stroke="#000" stroke-width="0.1" fill-rule="evenodd"/>
        <path id="N" d="M34.438,543.938l-2,1.188-1.687.563-2.562.438-.562-.625L26,545.438V547l.063,1.25-.687,1.813-.25.875.125.75.813,2.25.375.813.625.313.438-.25.313-.687.625-2.25.375-1.125.5-.5.5.313.188,1-.062,2.188-.687,1.688.313.438.875-.187.375.438L31,557.688l.125,1.25-1.25.625-.125,1.813,1.5,1.938,1.188,2.063L32.625,568l.75,1.875,1.125.813.688,1.625v1.25L34.75,575,36,576.563l1.875.75,1.938,1.563,1.438,1.313-.125,2.25.813,2.5.813,1.938,1,2.188,1.438.063,1.438-.875,1.5.875.688,2.375.313,2.063-.187,2.25-.5,1.375-.875,1.188L49.25,599.5l-.687,2.5,1.125.313,4.125.688,1.25,1.063,1.125-1.125,1.563-1.5,2-1.187,1.063.125.938-.812.438-1-.562-.875.75-1.937-.687-2.625-.687-.75-.312-1.312L60,588.75l-1.125-1.437v-3.687l-.5-3.5,1.125-1.062.813.5,2.5-.75.438.563,1.188-1,2-.062.25-.75,1,.313.938-2.75L68.438,574l-1.625-.625-.687-1.5.5-1.75-2.062-1.312-.75.188-.25-1.5-.625.625-2.562-.5-2.25.938L57.063,568l-.25,1.438-2.312,2-.937-3-.062-1.5L54.75,566l-.812-.625-.687.563-.625-.437.25-1-1.125-.375L50,564.5l-.125-2.437.5-.312-.5-1.437-1.812-.125-1.437-1.062-2.25-2.062-1.312-.375-3.187.563-.625,1.938-2,.313.188-2.25-.812-1.062.563-3.125-.312-1.562-.312-.437-.687-.25-.187-.562.25-1.062-.187-.937-.375-.812.438-1.75Z" fill="#c400ff" stroke="#000" stroke-width="0.1" fill-rule="evenodd"/>
        <path id="O" d="M33.25,466.375l.313,3.438L30.5,466.625l-3.062,1.063-1.562,1.188-.312,3.875.438.875-1.812,2.688-.937,2.313-.062,1.563-.75,1.938-3.562,1.5-1.187-.875-.125-1.125.5-4.375-2-4.5-1-.312-.937.563-.625.313-1,.188L10.313,477l-.062,2.063.188.563.625.938V481l-.312.125-.562-.25-.125.188L10,481.75l.813,2.438.125,1.063-.375,4.063,1.688,3.125,1.063,4.125L12.25,498l1.063,4.5.063.688.125.625-.187.563-.5.313-.312-.062-.125-.687-.5.125-.187.625v.813l.063.625.125.563-.687.813.125.438h.813l.875-.5.188-.5.375.063.25.438.563.25.75-.687-.062,1.438.75-.187-.25,1-.25.813.438.313.563.125-.187.813-.437.438.063.313,1-.125.563-.5.625-.875.563-.437v1.25l-.375.563-.625.688-.625.438-.75.125-.375.563-.687,1.125.188.25h1.063l1.188-.25.875-.375.625-.75.438-.875.75-.125.625-.437.625-.687.625-1.062.938.063.25-.5-.437-.562.938-.062,1.063.375h1.5l-1,1.125-.187.563.75,1.25.438,1v1.063h.75l-.062.75-.625.625-.5.188L26,517.5l-.125,1.188-.437.75-.5.688-.437.563.063,1,.125,1.063-.062,1-.375,1.125L23,526.188l-.187.5v.625l.313.5-.875,1.563-.25.875-.312.625-.5.625-.187.625.313.5.5.5L22,533.5l.125,1,.25.188.75-.125h.5l-.312,1.5-.875.25-.875.375-.5.688v.438l.125.313.375.688.438.125h.313l.313-.125.125-.625.375-.125.375.188.375.75L25,538.75l.375.25.75-.25h.5l-1.812,1-.187.375v.375l.688,2.063.313.063.438-.75.188.438-.125,2.063L26,545.438l1.625.063.563.625,2.563-.437,1.688-.562,2-1.187,1.375,1.75-.437,1.75.375.813.188.938-.25,1.063.188.563.688.25.313.438.313,1.563-.562,3.125.813,1.063-.187,2.25,2-.312.625-1.937,3.188-.562,1.313.375,2.25,2.063,1.438,1.063,1.813.125.5,1.438-.5.313L50,564.5l1.75-.375,1.125.375-.25,1,.625.438.688-.562.813.625L56,564.375l.563-2.25.75-1,1.125.438L59.063,559,61,558.563l.438-.875,1.125-.25v-1.125l1.438-.75.625-1.625,3-4.5,1.125-.812.438-1.25L69,545.25l.125-1,1.188-.562.375-1.25L70,540.625l.125-1.312L71,538l.063-3.687.25-1.812-.937-2.562.063-2.062,1.25-1.437.5-1.687.563-.125,1.188.688.75-.5,1.813.813.188,1.125,2.688-.812.125-.812,1.063-1.312.063-3.5,2.438.313.188-1.875.875-1.875.75-3.375,1.75-2.125,1.188-2.625,1.375-3.062,1-.562,1.063-2.75.188-1.812.125-2,1.125-1.062,2-.937,1.25-1.5L95.063,493H93.625l-.687,1.875-1.25.375-.187-1.312H89.875l-.187-3.375-1.375-.125-1.75-1.687,1.063-1.625L86.188,486l-.875-4.937-1.312-2H81.75l-2.812,1.688.438,2.25-.5,2.563-1,2.188-1.437,1.438-1.25-.875-4.062-.812-.5,1.5L72,490.438l.25,1.75,1.063-.75,1.75-.625.875.5-.687,1.125L73,494.313l-1.625.438H69.188L67.125,496l-2.375.75-2.187,1.5-.687,2.375-.5,2.125-1.187.813-1.875-.312-.937-.75,1.438-4.312.938-2.937-1-.875L57.125,494l-2.687,4.188-1.625,1.625.063.875-1.5,2.375-2.937.438-1.812,2.125.063,1.063-1.75.688.563-2.75-1.437-.187-2.125,3.125-1.375-.312-.875.625-2.25-.437.125-1.375,1.5-2.062L41,502.813l1.563-1.875,1.125-2,1.438-1.75,1.188-1.062-.437-.812-2.5-.25-1.062-1.312-.062-2.687L44,488.375l2.063-3.125.5-3.5.938-1.437,2.188-3.75v-3.875l-1.25-1.187-1.687-.875-1.625,2.75L42.5,472.75l-.875-2.5-1.812.375-1.875-.812L37.25,466.5ZM23.188,511.188l-.5.063-.812.438-.125.688.063.688-.187.5h-.312l-.625-.125-.5.125-.562.625-.5.625-.687.375-.5.313-.75.25-.375.313-.5.313-.625-.062-.625-.187-.687.875-.5,1.125.313-.125.375-.562.5.125.125.5.438.5.5.688.375.625-.187.563-.375.563-.25.25.375.375.5-.437.25.375.375.188.5-.125.5-.562.438-.687.188-.687.375-.5.813-.5.563.313.688.5.438.375-.125.625.563.125.5-.687.5-.312.25-.062.688-.062.875-.062.25-.812.125-1.187-.062-.937.188-.75.313-.812-.187-.625-.437-.562-.437-.437-.437-.375-.187-.812v-.812Zm.25,8.813-.062.625-.125.625.25-.062.313-.437.063-.5Zm-.5.188-.375.75.5.063Zm-2.062.25-.25.188-.5,1.188-.312.313-.5.125L17.938,522l-.375.125-.312.25-.312.625v.438l.188.375.438.125,1-.062.063.375-.062.313-.687.063-.25.125-.125.438.063.625.125.313.188.125.438.25v.875l.125.375h.813l.25-.437.25-.5.313-.25.563-.187.375-.25v-.312l.25-.562.188-.812.5.063.063.563h.375l.375-.312.25-.687.063-1.125L23,522.125l-.437-.5-.75.5-.437-.25.313-.5.125-.5-.5-.375Zm-.812,8.75-1,.188-.875,1.188.75.563,1.813-.875.375-1Zm-1.5,5-.687,2.313.438.188,1.063-1.375Zm1.938,1.75-.437.188-.5.375-.062.875-.437-.062L19,537.75l.188.188-.062.438-.625-.062.063.438,1.188.938L20,539.5l.188-.5v-.812l.313-.875.313-.562Z" fill="#fff027" stroke="#000" stroke-width="0.1" fill-rule="evenodd"/>
        <path id="S" d="M47.438,384.313l-5.75,1.25,2.125,6-.25,2.063,1.063,4.813,2.5,4.5-.187,2.25L48.875,409l-.062,5.063L46.063,418l.625,6.563L45.75,427l-1.562,4.25-1.625,1.188L41.75,434.5l-3,1.313L37.188,437.5l-2.437.313L32.813,437l-2.687,2.438,1.438,2.938.063,2.813-1.437,1.563-.75,1.625-2.687.5-1.25,2.313.875,4.625.5,4.875.75,2-.187,5,3.063-1.062,3.063,3.188-.312-3.437,4,.125.688,3.313,1.875.813,1.813-.375.875,2.5,2.625.625,1.625-2.75,1.688.875,1.25,1.188v3.875L52.75,475.5l.125,1.875L55,477l.625,1.875,1.25.063.563,4.563,2.5,1.5,1.125-1-.625-7.125-1.187-4.75-1.375-3.562,1.313-1.312v-3.437l.75,1.125.875,1,1.5-.187-.625-1.375.75-1,2.25-.312L66,464.688,67.5,468l1.813-1.75L70,464.063l2.125-.937,1.188,2,1.625-1.437,1.688,1.438,1.438.938,2-.062.75,4.25-1.625,3.188-1.437,2.75-.062,2.563.813.313,1.063-1.812,1.75-1.312L82.563,477l-.812,2.063H84l1.313,2,1.563-4.562-1.062-2.812.438-1.125-.312-2.312.938-3.687v-.5l1.375-3.437,2.125-2.25-1.437-3.187.5-1.187,1.063.438-.062-2.75-.812-3.75.438-1.625-1.25-2.375,1.313-.812-.437-2.562L90.063,439l-1.25-.562-.75-1.687,2.813-1-.5-2.187-5.125-3.5-.562-3.625-1.062-3.187-2.25.188-.437-1.375H79.313l.375,3.688L77,421.938l-3.375-7-2.812-.312-1.625-1.25-1.25-3.75-2.812-5.187-.875-2.875L63,401.5l-.562-3.187L52.25,386.625l-.5-2.312-1.375.438Z" fill="#afc8ff" stroke="#000" stroke-width="0.1" fill-rule="evenodd"/>
        <path id="T" d="M99.875,429.188l-1.25.125-1.75,1.125.625,4.313-7.125-1.187.5,2.188-2.812,1,.75,1.688,1.25.563-.375,3.563.438,2.563-1.312.813,1.25,2.375-.437,1.625.813,3.75.063,2.75L89.438,456l-.5,1.188,1.438,3.188-2.125,2.25-1.375,3.438v.5l-.937,3.688.313,2.313-.437,1.125,1.063,2.813-1.562,4.563L86.188,486l1.438,1.125-1.062,1.625,1.75,1.688,1.375.125.188,3.375H91.5l.188,1.313,1.25-.375L93.625,493h1.438l.875,2.063,2.313-1.437,1.438-3.25,1.563-1v2.438l.813-.25.125,1.625-1,2.063,2.188-1.25.5-1.75.938-1.812L105.938,489l1.313-.062,1.438-1.75,2.188,1.313,1.188-.562.75,1.313.5-2.125,2,.063,1.063-1.625L115.5,484l2.438-2.687-.625-1,.5-2.062,1.25-2.062,2.25-.312-.062-1.375-2.75-.312-1.25-1.812.938-1.437-1.875-2.437-3.187,1.125-3.375-1.375-.062-1.187,3.313.125,3.063-1,1.563.313.625-1.5-1.5-3.437,3.063.188-.062-2.5-.75-.687.813-1.687-2.25.188L117.5,454l-.25-1.937-1.5.188-1.062-1.312,1.063-2.375-1.187-4.062-1.75-.937-.125-2.062-1.75-3.187-2.5-2.875-2.125-1.625L105,431.75l-1.125.188-.562-.812-1.687,1-1.562-1.187Z" fill="#c400ff" stroke="#000" stroke-width="0.1" fill-rule="evenodd"/>
        <path id="U" d="M143.25,425.625l-3.5.25-1.187.5-.062,1.438-2.125,1.438-1,1.813-4.312.438-.875-.437.375-1.875-1.5-.937-1.25-.187-.75-1.875-1.25-.375-1.687,1.438-2.625-.625-.562,1.5-.937.625.063,1.563-1.25,2.438,1.063,1.5-.75,3.375L117.563,437l-1.875-.125-1.125,2.5-1.875,2.125.125,2.063,1.75.938,1.188,4.063-1.062,2.375,1.063,1.313,1.5-.187L117.5,454l.063,3.063,2.25-.187L119,458.563l.75.688.063,2.5-3.062-.187,1.5,3.438-.625,1.5,3.375.125.875,1.625,1.375-.687,1.688-2,1.688-1.5,1.313.5,2,.313,2.938-.687.25-1.125L132,462.188l.125-1.312-3.375.313-.687-2,2.75.063,1.563-.937,2,.938,2.813-.687.938-1.25,1.5-1.562-.812-1.375,1.625-.812,1.688,1.188,1.375,1.875,1.875-.812L146,454.75l2,.188L147.063,450l-1.812-2.687-1.187-2.25,1.25-1.75.75-1.937-1.312-1.812.5-1.062-.25-2.187-2.312-1.875.688-1.437-.687-3.187.938-.375Z" fill="#afc8ff" stroke="#000" stroke-width="0.1" fill-rule="evenodd"/>
        <path id="X" d="M118.125,325.625l-3.062.25-3.375,2.938.25,3.063,1.313.938.313,3.5-7.187,5.5.563,2.125-.187,2.5v2.188l-1.375-1.125-3.187-.25-.562,2.375-1.562-2.875-1.562.875-.812-1.5L94,351.688l-.687,7.438,3.438,1.438.563,2.5-.875,2.125,2.25-.437,1.188.5,2.563-.187,3.375.625,2-5.125,1.563,4.25,9.375,13.5.563,4.25,1.75,3.313,3.938,2.25,4.688.5,2.25,5.688,3.688,4.125-.562,2.25-1.625,1.25.438,1.563-1.812,2.813-2.187.688,2,3.938,1,.313.563,1.375,2.375,4.688,2.75.75,1.313,1.063.25,1.75.938.5.25,2.563,1.938,1.688,1.75-.062,1.938-1.875-.437-1,.938-1.125,4.5.75,2.25-1.937v-5.562l2.188-2,.938-8.437-3.125-1.687,2.875-2.75-2.5-2.437.688-2.375-2.562-4.562L154,388.25l-1.75-1.375.25-1.187L151.813,379l1.563-1.562.75-2.937-2.75-3.187L151,368.938l1.563-2.75-1.5-3.375,1.313-2.437,1.063-2.562.938-2.25,2.313.938.813,1.688,1.375.5.688-3.937-2.062-.875-.75-1.25.063-2.75-1.562-1.687.813-4.125,1.625-2.812.75-6.312-3.312-.875-1.937.313-2.062-.937-1.062.625-2.687-.75-1.375.25-2.437-1.437-6.125-1.5-5.937-.187-3.875.188-.812-.937Z" fill="#c400ff" stroke="#000" stroke-width="0.1" fill-rule="evenodd"/>
        <path id="Y" d="M174.563,248,161,253.813l-9.187-1.437-8.5-1.625-2.5-2.687-2.687,6.188-.25,3.375.875,4.813-5,2.188-1.375-.75-1.062,1.063-3.187-1.562-2.25,1.938-2.25-1.375-1.687.625,4,5.125-.375,2.188.25,3.25,1.5-.625,1.625.875-.125,2.875,10,8.938,8.813,10.563-7.437,1.125-3.937,5.188-1.562,2.188-.562,3.125-2.5-.75L129,309.75l-3.5-.812-7.875,3.875-7.25,1-2.5,1.75-1.312-1.437-3.437-.437-2.625.5.063,2.75.688,3.5h-1.187l.5,2.375,1.375.375,1.625,3.875,4.563,2.688,2.5-1.812,1.063.875,3.375-2.937,3.063-.25,8.688,4.063.813.938,3.875-.187,5.938.188,6.125,1.5L146,333.563l1.375-.25,2.688.75,1.063-.625,2.063.938,1.938-.312,3.313.875.938-2.312,1.875-.5.625-2.062-3.312-.937-1.75-2.812.375-1.75,1.688-.5-.5-3.687-2.25-.812-.062-1.25,1.875-.75,1.625,3.313,3.188.688-.5-2.25,1.563-1.437,2.125,1.188,1.188-3.562,3.25-2.625-1.937-1.625,1.5-1.312,2.188-3.562-2.875.25L168.938,305l2.688.563,2.938-3.125-1.312-1.25,1.063-.937L176.75,302l2.125-3.687,1-3.25-3.5-.5.438-1.375,1.75-.125.25-2.187,2.063-4.312,2.375.063,4.375-3.062,1.813,1.188L191,282.688l.125-3.875,2.313-.625.75-6.5-2.312-3.937-.062-1.937L187,258.563l-1.375-1.5-2.062.375-1.062-1.312-2.5-.5-2.937-.375-1.437-3.437.875-2Z" fill="#c400ff" stroke="#000" stroke-width="0.1" fill-rule="evenodd"/>
        <path id="AC" d="M115.75,140.125l.313,2.875-8.375,6.438-1.062.125-8.375.375,1.625,14.813L98,170.313,96.938,181.5l-.187,6.625-2.562,2.5-.937,6,5.625,5.063,1.063.375.875,1.313L102.188,205l-.125,1.75,1.5,1.938,1.688.125,1.563,2.25.25,2.75,3.688,1.75,1.938,3.063-1.375.938,1.438.938.5,1.313,1.25-.375v1.188l2.375,2.063.563,3.5,1.375.063-.25-3.562,1.5-.812.938,2.813.188,2.875,5.438,3.625.063,3.375,3.5-.375,10.625,11.875,2.5,2.688,8.5,1.625L161,253.813,174.563,248l1.938,1.813-.875,2,1.438,3.438,2.938.375,2.5.5,1.063,1.313,2.063-.375,1.375,1.5,4.813,7.25.063,1.938,2.313,3.938,2.25.5,1.813-.875-1.437-2.875.938-1.375,2.5,2.25,2,3.563,1.625-1.25-.75-2.437.563-1.062,3.125-4.062,1.75.063.25-2.25,2.188.313,3.438-.25.438-1.437,1.813-.062.375-3.375,1.625-2.187,3-.562,1.375-2.75,1.375-3.687,1.5-5.187.5-4.5,2.25-3.062,2.625-3.625,4-3.375,2.25-4.312-.125-1.625-1.625.25-1.062-3.75-1.875-1.937-2.312-.312-1.437-2.375.938-1.312-.125-3.875-3.687-.25L225,206.063l2.313.375,2.375-3.375-.812-2.375,2.313-1,2.375-5.437-3.937-2.062-.5-1.75L218.5,189.313l-17.562-7.125-3.875,8.625-1,1.125-3.5,2.125-1.625-1.75-1.625-1-.125-1.125.625-1-4-2.75-.875.25-.125-1.125-1.875-.687-1.812-1-.687-1.062-1.062-.562L179,181.125l-1-.375h-2.312l-1.375-1.5-1.687-.937L170,177.688l-1.25-1-1-2-2.125-.625-5.437-1.687-2.562-1L140.5,154l-3.812-.062-14.25-11.312Z" fill="#c400ff" stroke="#000" stroke-width="0.1" fill-rule="evenodd"/>
        <path id="Z" d="M93.25,196.625l-2.375,3.125-11.5,21.563L84.313,225l3.25,1.125.875,1.125.063,2.875.375,9.563-4.312,8.563-5.125-1.812-8.562-2.062-2.062-.5-6.375,1.875-4.5,3.438L51.375,259l-1.437,1.688-.625,2.563-3.125,3.313,1.063,5.313L41.813,281,46,293.938l-2.812,4.125.75,7.125-2.062,6.125,4.5,16.75,6.688,2.188,3.875-.187,3,4.063,2,2.875,2.5,2.813,3.063-1.5.5,2.125,1,.375-3.625,3.313,4.313,5.25,2,4.25-.25,2.063,1.25,1.75,1.063-.75,6.125,1.125,2,.813,4.813.25,3.438,1,1.25,1.25,1.938-2L94,351.688l3.688-5.562.813,1.5,1.563-.875,1.563,2.875.563-2.375,3.188.25,1.375,1.125v-2.187l.188-2.5-.562-2.125,7.188-5.5-.312-3.5-1.312-.937-.25-3.062-1.062-.875-2.5,1.813-4.562-2.687-1.625-3.875-1.375-.375-.5-2.375h1.188l-.687-3.5-.062-2.75,2.625-.5,3.438.438,1.313,1.438,2.5-1.75,7.25-1,7.875-3.875,3.5.813,2.625-1.125,2.5.75.563-3.125,1.563-2.187,3.938-5.187,7.438-1.125-8.812-10.562-10-8.937.125-2.875-1.625-.875-1.5.625-.25-3.25.375-2.187-4-5.125,1.688-.625,2.25,1.375,2.25-1.937,3.188,1.563,1.063-1.062,1.375.75,5-2.187-.875-4.812.25-3.375,2.688-6.187-10.625-11.875-3.5.375-.062-3.375-5.437-3.625L121,226.688l-.937-2.812-1.5.813.25,3.563-1.375-.062-.562-3.5-2.375-2.062v-1.187l-1.25.375-.5-1.312-1.437-.937,1.375-.937-1.937-3.062-3.687-1.75-.25-2.75-1.562-2.25-1.687-.125-1.5-1.937.125-1.75-1.375-1.625-.875-1.312-1.062-.375Zm-8.687,83.688L88,281.375l2.813,1.188,2.125,1.875L94.375,284l2.313,1.438-2.5-.312-.312,1.25,1.375,1.188,1.063.5-1.25.625-1.562.563.25,2.75.563,3.313L95,300.25l-1,3.625-1.312-.812L91.5,299.5l1.375-.312.063-3.25-1.062-3.625-.437-2.25-2-1.625-2.5-.937-1.625-1.562,2.125-.062Z" fill="#afc8ff" stroke="#000" stroke-width="0.1" fill-rule="evenodd"/>
        <path id="BD" d="M201.625,11.938l-7.875,1.438,3.813,5.25.75,5.063-1.375,6.063-2.312,3.75-2.062,2,5.125,2.438L192.5,44.5l-16.312-5.625-6.437,1.063-3.562-3.125-4.812,2.313-.125,6.125,1.688,9.813-3.5,9.063-.437,1.5-4.625-3.437L148,58.938l-1.625,3.125L139,67.625l-1,.938L134.938,82,133,85.813l-3.875.75-1.5,4,5,8.75.688,2.938-.875,6.938-4.875,4.25-1.937,2.375-6.687,13-4.562,5.25,1.375,6.063,6.688,2.5,14.25,11.313L140.5,154l17.125,17.375,2.563,1,5.438,1.688,2.125.625,1,2,1.25,1,2.625.625,1.688.938,1.375,1.5H178l1,.375.375,1.125,1.063.563.688,1.063,1.813,1,1.875.688.125,1.125.875-.25,4,2.75-.625,1,.125,1.125,1.625,1,1.625,1.75,3.5-2.125,1-1.125,3.875-8.625,17.563,7.125,10.625,1.125.5,1.75,3.938,2.063,1.188-3.187-1.062-4.437,1.688-1.312.25-1.375-4.562-2.875.813-1.375,2.875-1.187,3.125.188L240,177.75l1.188-2.25-2.625-2.687,3.25-.187,2.125-.125-.125-1.937,1.063-.5,2.438.688.938-.5-1.187-2-.562-2.312-.562-2.687-.25-3.312.438-3.062,1.875-.937,1.625,2.313.063,1.688,2.188-.187L253.75,162l1.438.5-.125-1.562L253,158.813l-.75-3.875.563-.687,1.625.938,1.375,3.313,3.625,1.375,2.063,1.75.813-3.687.75-1.375,1.25.5,2.938.938.813-2.187,2.188,1,1.313-.562.25-1.25,1.313.063,1.75,1.313,5.813-1.25-2.937-6.937-.812-2.75-1.75-2.75V141.5l-.625-.687V139.25l-1.437-.062-2.625-.812-2.5-5.687.625-4.125-1.125-1.625v-1.25l1.25-.875v-1.5l1.438-.562-.187-1.5,1.125-1.437-.375-3.187L271,115l-.5-3.687.188-1.312,1.125.313.125-1.75-.812-1.625-2-2.312-.25-1.875-1.125-.562-.312-1.375-1-.187-1.875-2.062-.375-2.312-2.25-3.062.375-1.562-.625-1.125L262,88.438l2.188-.875.625-2.5-.875-.312-.187-1.937.438-1.625-1.25-1.25-.625.813-2.687-1.125-.562.813-1.812-1.5,1.125-2.375-.625-1.25h.875l.313-2.937-1.625-2.562L257.125,65l-.5-1.75.438-3.125L259,59.063l-.5-2.625L257,56.25l-.562-1.75h-1.062L255,53.25h-1.25l-1.437-3.5-1.187-1.25-1.625.938-.75-1.312.063-1.812-.187-1.625-1.5-1.25-.312-1.625-1.937-.937-.562-.062-1.875-.875-.062-1.25-.937-.625-.437.813-1.875-1.125-.687-.937-.562.5-3.375-1.5-.75.875-.812-1.375-1.375.375H229.75l-1.75-.5L227.563,34l-.062-1.437-3-1.687-2.25.063.063-1.5L220.375,28l-1.937-.562L217,26.75l-.375-2.937-1.062-.5-.937.563-1.25-2.312-4.062-3.5-1.375.25-1.375-1.625.813-1.062.313-.875-1-.437-1.5-1.812ZM146,136.625l4.375,2.125,2.063,2.5,2.313,2.313,2.063,2.313,3,1.5,1.125,2.75,1.813,1.75,1.688-.812,1.125,1.313-.687,1.063-2.75.563.938,2.938-.812,2.5,5,6.125,2.438-.062,1.5.938-.312,2,1,1.188,2,1.5-.125,1.25-4.437-1.437-1.187-.75-1.75.563-2-5.812-3-4.312-.937,2.625-1.562.063-.437-2.875.688-1.687-.187-1.625-2.125-2.937,2.25-1.125,1.625-.687L158.5,150.25l-2.375-2.625-3-1.312-.25-2.125-2.5-3.312-4.875-2.937Z" fill="#c400ff" stroke="#000" stroke-width="0.1" fill-rule="evenodd"/>
        <path id="W" d="M46.375,328.063l-4.5,24.688,5.688,7.625,3.25-.125,5.75,10.188-1,5.25-1.187,2.75-1.937,1.438-.687,4.438.5,2.313,10.188,11.688L63,401.5l1.25.063.875,2.875,2.813,5.188,1.25,3.75,1.625,1.25,2.813.313,3.375,7,2.688,3.813-.375-3.687h1.625l.438,1.375,2.25-.187,1.063,3.188.563,3.625,5.125,3.5L97.5,434.75l-.625-4.312,1.75-1.125,1.25-.125.188,1.75,1.563,1.188,1.688-1,.563.813L105,431.75l1.313,2.063,2.125,1.625,2.5,2.875,1.75,3.188,1.875-2.125,1.125-2.5,1.875.125,1.563.625.75-3.375-1.062-1.5,1.25-2.437L120,428.75l.938-.625.563-1.5,2.625.625,1.688-1.437,1.25.375.75,1.875,1.25.188,1.5.938-.375,1.875.875.438,4.313-.437,1-1.812,2.125-1.437.063-1.437,1.188-.5,3.5-.25-1.937-1.687-.25-2.562-.937-.5-.25-1.75-1.312-1.062-2.75-.75-2.375-4.687-.562-1.375-1-.312-2-3.937,2.188-.687,1.813-2.812-.437-1.562,1.625-1.25.563-2.25-3.687-4.125-2.25-5.687-4.687-.5-3.937-2.25-1.75-3.312-.562-4.25-9.375-13.5-1.563-4.25-2,5.125-3.375-.625-2.563.188-1.187-.5-2.25.438.875-2.125-.562-2.5-3.437-1.437-1.937,2-1.25-1.25-3.437-1-4.812-.25-2-.812-6.125-1.125-1.062.75-1.25-1.75.25-2.062-2-4.25-4.312-5.25L69,340.813l-1-.375-.5-2.125-3.062,1.5L61.938,337l-2-2.875-3-4.062-3.875.188-6.687-2.187ZM95,388.563l1.875,2.75h1.313L101.813,395l1.688-1.062,1.25-1.125,1.875,1.313-1.437,1.625-1.75.688L103.063,400l-1.312-3.312-3.938,1.938-1.375-2.25-2.312-3.062,1.75.063,1.063-.562-1.125-1.187-1.687-.187-.25-1.75Z" fill="#c400ff" stroke="#000" stroke-width="0.1" fill-rule="evenodd"/>
      </g>
      <path id="lan-border" d="M46.375,328.063l6.688,2.188,3.875-.187,3,4.063,2,2.875,2.5,2.813,3.063-1.5.5,2.125,1,.375-3.625,3.313,4.313,5.25,2,4.25-.25,2.063,1.25,1.75,1.063-.75,6.125,1.125,2,.813,4.813.25,3.438,1,1.25,1.25,1.938-2L94,351.688l3.688-5.562.813,1.5,1.563-.875,1.563,2.875.563-2.375,3.188.25,1.375,1.125v-2.187l.188-2.5-.562-2.125,7.188-5.5-.312-3.5-1.312-.937-.25-3.062-1.062-.875-2.5,1.813-4.562-2.687-1.625-3.875-1.375-.375-.5-2.375h1.188l-.687-3.5-.062-2.75,2.625-.5,3.438.438,1.313,1.438,2.5-1.75,7.25-1,7.875-3.875,3.5.813,2.625-1.125,2.5.75.563-3.125,1.563-2.187,3.938-5.187,7.438-1.125-8.812-10.562-10-8.937.125-2.875-1.625-.875-1.5.625-.25-3.25.375-2.187-4-5.125,1.688-.625,2.25,1.375,2.25-1.937,3.188,1.563,1.063-1.062,1.375.75,5-2.187-.875-4.812.25-3.375,2.688-6.187m-47.5,111.063,3.438,1.438.563,2.5-.875,2.125,2.25-.437,1.188.5,2.563-.187,3.375.625,2-5.125,1.563,4.25,9.375,13.5.563,4.25,1.75,3.313,3.938,2.25,4.688.5,2.25,5.688,3.688,4.125-.562,2.25-1.625,1.25.438,1.563-1.812,2.813-2.187.688,2,3.938,1,.313.563,1.375,2.375,4.688,2.75.75,1.313,1.063.25,1.75.938.5.25,2.563,1.938,1.688m15.188-90.687-3.312-.875-1.937.313-2.062-.937-1.062.625-2.687-.75-1.375.25-2.437-1.437-6.125-1.5-5.937-.187-3.875.188-.812-.937-8.687-4.062-3.062.25-3.375,2.938m45.625,75.563-.937,8.438-2.187,2v5.563l-2.25,1.938-4.5-.75-.937,1.125.438,1L145,425.563l-1.75.063.375,3.813-.937.375.688,3.188-.687,1.438L145,436.313l.25,2.188-.5,1.063,1.313,1.813-.75,1.938-1.25,1.75,1.188,2.25L147.063,450l.938,4.938,1.625,1.625,1.625-1,1.438-.375,2.688,1.188,2.938,2.563,2.063.063-.125-2.437-1.687-3.5.25-.437.75-.375.125.813.25.625.688.938.75,1,.813.563.438-.062.313-.5.313-.687.313-.125.125-.625-.937-.875-.062-.812.313-.75.313-.375.375-.062.313-.562-.187-.25.688-.687.625-.312-.125-.875.688.125h.688l.313.438.563.125.188.563.438.063.25-.687.563-.312.5.063.25.188.438-.25-.125-.312,1.875-.75.438-.062.438-.25.75-.625h.5l.625-.562.188.125.5-.125h.5l1.063-3.625,3.688-1L182,440l.438-5.937.938-.375-1.5-1.875,1.875-.625.5-2.25.438-2.312m-19.562,56.688-1.812-.875-.125-1.125-3.75.063-1.875-2.625.25-4.25-1.25-2.25-.375-2.375,1.063-1.25-.687-1.687,1.25-.937-.25-1.437-.687-.187,1.188-1.562L157,460.5l-3.187-.75-.625,1,.813,2.813-1.75.125-.937-3,.688-1.625-1.375-1-1.062.5-.375,1.625L146.5,459l-1.25.563-1.937.188L141,460.5l-2.125-.437-2.312.5-4.437.313L132,462.188l1.125.875-.25,1.125-2.937.688-2-.312-1.312-.5-1.687,1.5-1.687,2,3.375.25,1.688,1.25,4.5-1.5,1,.125-.875,1.5L131,470l-2.562.25-1.625.688-2.625.938L124,473.563l-1.125,1.125-1.625-.187.063,1.375-2.25.313-1.25,2.063-.5,2.063.625,1,2.625,1.063,1.25-2.687,1.188.625.438,1.188,2.313,1.563,2.313,1.063,1.063,2.063,1.688,1.875,1.438.375.625.938,2.813,5.5,4.25.125,3.5,1.188,1.5,2.188m-12.812-37.5-3.375.313-.687-2,2.75.063,1.563-.937,2,.938,2.813-.687.938-1.25,1.5-1.562-.812-1.375,1.625-.812,1.688,1.188,1.375,1.875,1.875-.812L146,454.75l2,.188M90.375,433.563l.5,2.188-2.812,1,.75,1.688,1.25.563-.375,3.563.438,2.563-1.312.813,1.25,2.375-.437,1.625.813,3.75.063,2.75L89.438,456l-.5,1.188,1.438,3.188-2.125,2.25-1.375,3.438v.5l-.937,3.688.313,2.313-.437,1.125,1.063,2.813-1.562,4.563m10.625,14,2.313-1.437,1.438-3.25,1.563-1v2.438l.813-.25.125,1.625-1,2.063M121.25,474.5l-2.75-.312-1.25-1.812.938-1.437-1.875-2.437-3.187,1.125-3.375-1.375-.062-1.187,3.313.125,3.063-1,1.563.313m-27.25-32.937-5.125-3.5-.562-3.625-1.062-3.187-2.25.188-.437-1.375H79.313l.375,3.688L77,421.938l-3.375-7-2.812-.312-1.625-1.25-1.25-3.75-2.812-5.187-.875-2.875L63,401.5l-.562-3.187L52.25,386.625l-.5-2.312M27.438,467.688l3.063-1.062,3.063,3.188-.312-3.437,4,.125.688,3.313,1.875.813,1.813-.375.875,2.5,2.625.625,1.625-2.75,1.688.875,1.25,1.188v3.875L52.75,475.5l.125,1.875L55,477l.625,1.875,1.25.063.563,4.563,2.5,1.5,1.125-1-.625-7.125-1.187-4.75-1.375-3.562,1.313-1.312v-3.437l.75,1.125.875,1,1.5-.187-.625-1.375.75-1,2.25-.312L66,464.688,67.5,468l1.813-1.75L70,464.063l2.125-.937,1.188,2,1.625-1.437,1.688,1.438,1.438.938,2-.062.75,4.25-1.625,3.188-1.437,2.75-.062,2.563.813.313,1.063-1.812,1.75-1.312L82.563,477l-.812,2.063M26,545.438l1.625.063.563.625,2.563-.437,1.688-.562,2-1.187,1.375,1.75-.437,1.75.375.813.188.938-.25,1.063.188.563.688.25.313.438.313,1.563-.562,3.125.813,1.063-.187,2.25,2-.312.625-1.937,3.188-.562,1.313.375,2.25,2.063,1.438,1.063,1.813.125.5,1.438-.5.313L50,564.5l1.75-.375,1.125.375-.25,1,.625.438.688-.562.813.625L56,564.375l.563-2.25.75-1,1.125.438L59.063,559,61,558.563l.438-.875,1.125-.25v-1.125l1.438-.75.625-1.625,3-4.5,1.125-.812.438-1.25L69,545.25l.125-1,1.188-.562.375-1.25L70,540.625l.125-1.312L71,538l.063-3.687.25-1.812-.937-2.562.063-2.062,1.25-1.437.5-1.687.563-.125,1.188.688.75-.5,1.813.813.188,1.125,2.688-.812.125-.812,1.063-1.312.063-3.5,2.438.313.188-1.875.875-1.875.75-3.375,1.75-2.125,1.188-2.625,1.375-3.062,1-.562,1.063-2.75.188-1.812.125-2,1.125-1.062,2-.937,1.25-1.5L95.063,493H93.625l-.687,1.875-1.25.375-.187-1.312H89.875l-.187-3.375-1.375-.125-1.75-1.687,1.063-1.625L86.188,486l-.875-4.937-1.312-2H81.75l-2.812,1.688.438,2.25-.5,2.563-1,2.188-1.437,1.438-1.25-.875-4.062-.812-.5,1.5L72,490.438l.25,1.75,1.063-.75,1.75-.625.875.5-.687,1.125L73,494.313l-1.625.438H69.188L67.125,496l-2.375.75-2.187,1.5-.687,2.375-.5,2.125-1.187.813-1.875-.312-.937-.75,1.438-4.312.938-2.937-1-.875L57.125,494l-2.687,4.188-1.625,1.625.063.875-1.5,2.375-2.937.438-1.812,2.125.063,1.063-1.75.688.563-2.75-1.437-.187-2.125,3.125-1.375-.312-.875.625-2.25-.437.125-1.375,1.5-2.062L41,502.813l1.563-1.875,1.125-2,1.438-1.75,1.188-1.062-.437-.812-2.5-.25-1.062-1.312-.062-2.687L44,488.375l2.063-3.125.5-3.5.938-1.437,2.188-3.75M47.563,598.375,49.25,599.5l-.687,2.5,1.125.313,4.125.688,1.25,1.063,1.125-1.125,1.563-1.5,2-1.187,1.063.125.938-.812.438-1-.562-.875.75-1.937-.687-2.625-.687-.75-.312-1.312L60,588.75l-1.125-1.437v-3.687l-.5-3.5,1.125-1.062.813.5,2.5-.75.438.563,1.188-1,2-.062.25-.75,1,.313.938-2.75L68.438,574m60,31.563-1.625.813-1.125-.812-2.437.125-1.437-1-1.625-3.125-1.375-.437L118.25,600l-.437-1.25-1.25.063-.625-1.437-1.875-.687-.25,1.5-2.187-.812-1.562.563L109,599.125l-1.125-1-1.25.813-.25,1.188h-1.5l-.187-1h-2.75l-1.375,1-1.25,2.563-1,.875-2-.875-2.375-.437-1.062-.5-1.812-2.375-1.875-.312-1.437,2.563-1.5.375-.625,2.375L86.188,606l.5,1.5.188,2.063,1.313.563,1.5-.25.563,1.188.438,5.313-1,.5-.25,1.313m104.251-88.625,1.687,3.625,1.063-3.125,1-1.062,3.5.687,1.25-1.062.437-1.875,1.813-1.188,2.062.688,1.375-.188.438,1-.688.813-1.812.062-1.5.563-.563.687.5,1.188-.875,1.875-1.562,1-.813.562.125,1.75-1.562.063-.125,2.875-1.875.125-1.313-.875-.187,2.5-.75,3.312.875.563-.25,2.812-.75,1.438,1.125,2.187,1.625,1.125,1.562.375-.75,2-1.937.688-1.563.5L193.563,558l.062,1.437,1.063.688-.875,1.687L191,562.875l-.375,1-3.5,2.75,1,.5-2.562,2,.125,3,1.375.562-1.75,2.563-2.75,1.937-1.688-.125,1.375-3.25.188-1.937,1.625-1.063.625-1.375-.313-1.062-1.562,1.312-.563-.312.313-2.75-1.125-.813-.75-.687v-3.563l-1.375-.437.312-1.813,1.25-1.5.313-3-.938-1.187-.562-2.438-.563-2.25.375-1.812,1.938-2.438,1.375-.625,1.625-2.375,1.75-3.5.75-2.937,1.312-1.125h0l1.375-.5,1.188-.375.437-1.938,1.125-1ZM145.313,527.5l-1.437,1L142,528.188l-1.312-5.062-1.5-.75-.75,1.5L136,520.75l-1.937.875-1-1.125-1.812,1.563-.687.75.625,1.875-1.437.188-.625-1.187-2.25.063-.375,2.438,2,2.938-1.125.875,1.188,4.125-1.187.125-2.437,2.25-1.312-.937-1.812.938-.375-1.5-2.687-.875-2.187.5.25,1.375-1.375,1.25-.5,1.625-1.5-.25-.687.938-.312,2.125.625,1.25,1.75.375,3.5,2.75-1.875,2.375,1.063.938.375,1.313-.75.75L117,553.563l-1.375-1-1.187.938.125,2.5-.375.875.438,2.063-1.187.813.125,2.438.813.625.813,2.125.625.688-.5,1.5,2.313,1,.875,2.063,1.875.75,1.563,2.188L123,575.313l-.812,2.563-2.937.25-1.062.25-2.437-.875-1.125.5v.938l1,2.875-.25,1.438-2.625.313-2.062.875,1.563,2.938-.312,2,.313,1.188-1.5,1.938.25,2.125-.75.688-.187,2.625m27.313,10,.5.813-.187,2.375,1.688-1.5.813-2.625,1.625-3.937-.375-1.562,1.063-2.562.75-2.875.188-2.125,1.313-1.375-.187-1L145,589l1.875-6.875,1.188-.312.688-1.687-.062-1.437.563-1.062.063-3.187,1.375-1.25-.625-1.5,1,.063.875-3.187,1.25-2.75.625-.625v-2.812l-.375-1.062.625-1.562,1.25-.687-.437-1.812M61.75,599.563l1,1,2.063.125,3.313-.75L70.313,599l2.063.063,1.563-.812h2.25l1-1.625.25-1.25,1-.062.813,1.188,2.625.813.438-.562,4.125,1.188,2.75,1.125M91,522.625l-1.75,2.813-.5,1.938-2.437,1.563L84.563,532l-.5,2.188-.25,2.688-1.25.125-.75.563-.687-.5.25-1.875L81,533.25l-.687-.625.188-3.375,1.063-1.812.938-3.125.563-3.687M54.75,566l-1.25.938.063,1.5.938,3,2.313-2,.25-1.437,1.063.563,2.25-.937,2.563.5.625-.625.25,1.5.75-.187,2.063,1.313-.5,1.75.688,1.5,1.625.625L69,570.938l1.125-.687,1.813.25,1,2.625,1.5-.75.313-1.125,2.25-.562,1.375.438.938,1.063.563-.437,1.438,2.438.188,1.938,1.063,2.5,1.125.625,1.25-.687,1.375-3.312-1.5-1.937-.25-1.625.5-.75.125-4.312h1.188l2.5-.062,1.438-.312.25-1.5,1,.188.438-.625,1.563-.187L95,563.25h1.5l1.625.875,1,1.125.375,2.313,1.438-.125.5-1.125,1.063-.25,1-.687.5-.75,1.75.125-1.062-1.625h1.5l1.125.875,4-.625,3.875,1.563m2.75-83.625L115.5,484l.875,1.563-1.062,1.625-2-.062-.5,2.125-.75-1.312-1.187.563-2.187-1.312-1.437,1.75-1.312.063-1.125,1.438-.937,1.813-.5,1.75-2.187,1.25-.312,3.063-1.687,2,1.688,1.375,1.438.313.813.75-1.5.938L100.688,506l-1.5.688-1.062-1.125L97.063,506,97,507.5l-2.812,2.313-.375,1.563-.5,1.563.313,1-.625,1-.625,3.125L91,522.625l1.625.688,3.5-.562.188,1.438,3.438-.687.938-1.875,1.188.625,1.063,4,.563,1.5-.875,1.063-.812,1.938.5,1.813,1.75,2.125-.312,1.125.875,3.125,1,2.375,3.563-.375,3.25.75M143.25,425.625l-3.5.25-1.187.5-.062,1.438-2.125,1.438-1,1.813-4.312.438-.875-.437.375-1.875-1.5-.937-1.25-.187-.75-1.875-1.25-.375-1.687,1.438-2.625-.625-.562,1.5-.937.625.063,1.563-1.25,2.438,1.063,1.5-.75,3.375L117.563,437l-1.875-.125-1.125,2.5-1.875,2.125.125,2.063,1.75.938,1.188,4.063-1.062,2.375,1.063,1.313,1.5-.187L117.5,454l.063,3.063,2.25-.187L119,458.563l.75.688.063,2.5-3.062-.187,1.5,3.438-.625,1.5,3.375.125.875,1.625,1.375-.687M112.688,441.5l-1.75-3.187-2.5-2.875-2.125-1.625L105,431.75l-1.125.188-.562-.812-1.687,1-1.562-1.187-.187-1.75-1.25.125-1.75,1.125.625,4.313-7.125-1.187M233.563,194.25l-3.937-2.062-.5-1.75L218.5,189.313l-17.562-7.125-3.875,8.625-1,1.125-3.5,2.125-1.625-1.75-1.625-1-.125-1.125.625-1-4-2.75-.875.25-.125-1.125-1.875-.687-1.812-1-.687-1.062-1.062-.562L179,181.125l-1-.375h-2.312l-1.375-1.5-1.687-.937L170,177.688l-1.25-1-1-2-2.125-.625-5.437-1.687-2.562-1L140.5,154l-3.812-.062-14.25-11.312-6.687-2.5m-22.5,56.5,5.625,5.063,1.063.375.875,1.313L102.188,205l-.125,1.75,1.5,1.938,1.688.125,1.563,2.25.25,2.75,3.688,1.75,1.938,3.063-1.375.938,1.438.938.5,1.313,1.25-.375v1.188l2.375,2.063.563,3.5,1.375.063-.25-3.562,1.5-.812.938,2.813.188,2.875,5.438,3.625.063,3.375,3.5-.375,10.625,11.875,2.5,2.688,8.5,1.625L161,253.813,174.563,248l1.938,1.813-.875,2,1.438,3.438,2.938.375,2.5.5,1.063,1.313,2.063-.375,1.375,1.5,4.813,7.25.063,1.938,2.313,3.938" fill="none" stroke="#a30000" stroke-width="0.62"/>
    </g>
    <g id="Rectangle_1" data-name="Rectangle 1" transform="translate(1539.5 2541)" fill="#0fc100" stroke="#707070" stroke-width="1">
      <rect width="14" height="14" stroke="none"/>
      <rect x="0.5" y="0.5" width="13" height="13" fill="none"/>
    </g>
    <g id="Rectangle_2" data-name="Rectangle 2" transform="translate(1539.5 2557)" fill="#c400ff" stroke="#707070" stroke-width="1">
      <rect width="14" height="14" stroke="none"/>
      <rect x="0.5" y="0.5" width="13" height="13" fill="none"/>
    </g>
    <g id="Rectangle_3" data-name="Rectangle 3" transform="translate(1539.5 2573)" fill="#afc8ff" stroke="#707070" stroke-width="1">
      <rect width="14" height="14" stroke="none"/>
      <rect x="0.5" y="0.5" width="13" height="13" fill="none"/>
    </g>
    <g id="Rectangle_9" data-name="Rectangle 9" transform="translate(1539.5 2589)" fill="#fff027" stroke="#707070" stroke-width="1">
      <rect width="14" height="14" stroke="none"/>
      <rect x="0.5" y="0.5" width="13" height="13" fill="none"/>
    </g>
    <path id="Path_7" data-name="Path 7" d="M.506-3.261l1.969-.191A2.4,2.4,0,0,0,3.2-2a2.181,2.181,0,0,0,1.466.465,2.254,2.254,0,0,0,1.473-.414,1.23,1.23,0,0,0,.5-.967.912.912,0,0,0-.208-.6,1.666,1.666,0,0,0-.728-.434q-.355-.123-1.62-.437A5.5,5.5,0,0,1,1.791-5.38,2.608,2.608,0,0,1,.868-7.4,2.576,2.576,0,0,1,1.3-8.829,2.718,2.718,0,0,1,2.553-9.844a5.014,5.014,0,0,1,1.972-.349,4.23,4.23,0,0,1,2.84.827,2.919,2.919,0,0,1,1,2.208l-2.023.089a1.718,1.718,0,0,0-.557-1.111A2.04,2.04,0,0,0,4.5-8.518a2.312,2.312,0,0,0-1.381.362.73.73,0,0,0-.321.622.77.77,0,0,0,.3.608,5.32,5.32,0,0,0,1.859.67,9.812,9.812,0,0,1,2.184.721A2.815,2.815,0,0,1,8.254-4.515a2.979,2.979,0,0,1,.4,1.6,2.951,2.951,0,0,1-.479,1.613A2.868,2.868,0,0,1,6.822-.188,5.676,5.676,0,0,1,4.642.178,4.341,4.341,0,0,1,1.723-.7,3.821,3.821,0,0,1,.506-3.261Zm13.166-4v1.531H12.359V-2.8A7.277,7.277,0,0,0,12.4-1.767a.422.422,0,0,0,.171.243.542.542,0,0,0,.325.1,2.485,2.485,0,0,0,.772-.185l.164,1.49a3.818,3.818,0,0,1-1.518.287,2.407,2.407,0,0,1-.937-.174,1.367,1.367,0,0,1-.612-.451,1.781,1.781,0,0,1-.27-.749,9.311,9.311,0,0,1-.062-1.354V-5.729H9.55V-7.26h.882V-8.7l1.928-1.121V-7.26Zm.889,3.527a3.927,3.927,0,0,1,.472-1.853,3.238,3.238,0,0,1,1.336-1.367A3.966,3.966,0,0,1,18.3-7.424,3.625,3.625,0,0,1,21-6.354a3.7,3.7,0,0,1,1.053,2.7A3.74,3.74,0,0,1,20.99-.919,3.593,3.593,0,0,1,18.313.164a4.216,4.216,0,0,1-1.9-.451A3.1,3.1,0,0,1,15.032-1.61,4.407,4.407,0,0,1,14.561-3.732Zm1.969.1a2.4,2.4,0,0,0,.513,1.654,1.629,1.629,0,0,0,1.265.574,1.619,1.619,0,0,0,1.261-.574,2.438,2.438,0,0,0,.509-1.668,2.394,2.394,0,0,0-.509-1.641,1.619,1.619,0,0,0-1.261-.574,1.629,1.629,0,0,0-1.265.574A2.4,2.4,0,0,0,16.529-3.63ZM29.887-5.113l-1.894.342a1.374,1.374,0,0,0-.434-.854,1.311,1.311,0,0,0-.878-.287,1.435,1.435,0,0,0-1.145.5,2.54,2.54,0,0,0-.427,1.658,2.938,2.938,0,0,0,.434,1.825,1.425,1.425,0,0,0,1.166.533,1.3,1.3,0,0,0,.9-.311,1.871,1.871,0,0,0,.492-1.07l1.887.321A3.348,3.348,0,0,1,28.854-.5a3.491,3.491,0,0,1-2.235.663,3.323,3.323,0,0,1-2.54-1,3.9,3.9,0,0,1-.947-2.782,3.9,3.9,0,0,1,.95-2.8,3.375,3.375,0,0,1,2.57-1,3.507,3.507,0,0,1,2.109.571A3.162,3.162,0,0,1,29.887-5.113ZM31.274,0V-10.021H33.2V-4.7L35.444-7.26H37.81L35.328-4.607,37.987,0H35.916L34.091-3.261l-.9.937V0Zm9.769-10.021v3.685a2.833,2.833,0,0,1,2.222-1.087,2.822,2.822,0,0,1,1.2.246,1.955,1.955,0,0,1,.8.629,2.28,2.28,0,0,1,.369.848,7.578,7.578,0,0,1,.1,1.442V0H43.812V-3.835A5.678,5.678,0,0,0,43.7-5.284a.951.951,0,0,0-.386-.489,1.242,1.242,0,0,0-.694-.181,1.592,1.592,0,0,0-.854.232,1.341,1.341,0,0,0-.55.7,4.185,4.185,0,0,0-.174,1.384V0H39.122V-10.021Zm6.193,6.289a3.927,3.927,0,0,1,.472-1.853,3.238,3.238,0,0,1,1.336-1.367,3.966,3.966,0,0,1,1.931-.472,3.625,3.625,0,0,1,2.7,1.07,3.7,3.7,0,0,1,1.053,2.7A3.74,3.74,0,0,1,53.666-.919,3.593,3.593,0,0,1,50.989.164a4.216,4.216,0,0,1-1.9-.451A3.1,3.1,0,0,1,47.708-1.61,4.407,4.407,0,0,1,47.236-3.732Zm1.969.1a2.4,2.4,0,0,0,.513,1.654,1.629,1.629,0,0,0,1.265.574,1.619,1.619,0,0,0,1.261-.574,2.438,2.438,0,0,0,.509-1.668,2.394,2.394,0,0,0-.509-1.641,1.619,1.619,0,0,0-1.261-.574,1.629,1.629,0,0,0-1.265.574A2.4,2.4,0,0,0,49.205-3.63ZM56.232,0V-10.021h1.921V0Zm3.746-7.26h1.771v.991a2.849,2.849,0,0,1,2.263-1.155,2.437,2.437,0,0,1,1.21.287,2.206,2.206,0,0,1,.841.868,3.354,3.354,0,0,1,1.032-.868,2.533,2.533,0,0,1,1.183-.287,2.634,2.634,0,0,1,1.354.325,1.989,1.989,0,0,1,.827.954,4.137,4.137,0,0,1,.2,1.5V0H68.735V-4.149a3.087,3.087,0,0,0-.2-1.395.91.91,0,0,0-.82-.41,1.309,1.309,0,0,0-.759.246,1.365,1.365,0,0,0-.513.721,5.189,5.189,0,0,0-.157,1.5V0H64.367V-3.979a5.519,5.519,0,0,0-.1-1.367.872.872,0,0,0-.318-.458,1,1,0,0,0-.584-.15,1.4,1.4,0,0,0-.8.239,1.312,1.312,0,0,0-.509.69,5.132,5.132,0,0,0-.154,1.5V0H59.979ZM85.34-1.224,84.178.26A6.787,6.787,0,0,1,82.537-.889a4.126,4.126,0,0,1-1.292.807,4.58,4.58,0,0,1-1.627.26A3.588,3.588,0,0,1,76.8-.875a2.719,2.719,0,0,1-.731-1.873,2.824,2.824,0,0,1,.574-1.733A4.7,4.7,0,0,1,78.36-5.817a5.438,5.438,0,0,1-.772-1.159,2.447,2.447,0,0,1-.26-1.042,1.968,1.968,0,0,1,.728-1.542,3.069,3.069,0,0,1,2.075-.632,2.913,2.913,0,0,1,2.03.663,2.1,2.1,0,0,1,.731,1.62,2.058,2.058,0,0,1-.362,1.155,4.9,4.9,0,0,1-1.463,1.237l1.395,1.839a4.706,4.706,0,0,0,.424-1.142l1.736.4a10.669,10.669,0,0,1-.451,1.35,3.625,3.625,0,0,1-.41.714,7.827,7.827,0,0,0,.831.66A6.271,6.271,0,0,0,85.34-1.224ZM80.11-6.672l.52-.4A1.2,1.2,0,0,0,81.2-7.95a.831.831,0,0,0-.277-.629,1.05,1.05,0,0,0-.749-.26,1.048,1.048,0,0,0-.718.229.689.689,0,0,0-.26.53,1.449,1.449,0,0,0,.438.861Zm-.752,2.085a2.6,2.6,0,0,0-.991.807,1.671,1.671,0,0,0-.328.964A1.349,1.349,0,0,0,78.446-1.8a1.5,1.5,0,0,0,1.09.393,2.192,2.192,0,0,0,.868-.178,3.788,3.788,0,0,0,.909-.588Zm15.777.9V-5.373H99.5v3.992A5.49,5.49,0,0,1,97.655-.3a6.705,6.705,0,0,1-2.444.468,5.485,5.485,0,0,1-2.741-.66,4.194,4.194,0,0,1-1.757-1.887,6.1,6.1,0,0,1-.588-2.669,5.768,5.768,0,0,1,.656-2.782A4.42,4.42,0,0,1,92.7-9.693a5.183,5.183,0,0,1,2.4-.5,4.787,4.787,0,0,1,2.916.783,3.534,3.534,0,0,1,1.35,2.164l-2.01.376a2.122,2.122,0,0,0-.8-1.166A2.407,2.407,0,0,0,95.1-8.463a2.742,2.742,0,0,0-2.109.841,3.542,3.542,0,0,0-.783,2.5A3.924,3.924,0,0,0,93-2.451a2.648,2.648,0,0,0,2.078.892,3.485,3.485,0,0,0,1.275-.25,4.369,4.369,0,0,0,1.1-.6V-3.685Zm5.77-.048a3.927,3.927,0,0,1,.472-1.853,3.238,3.238,0,0,1,1.336-1.367,3.966,3.966,0,0,1,1.931-.472,3.625,3.625,0,0,1,2.7,1.07,3.7,3.7,0,0,1,1.053,2.7,3.74,3.74,0,0,1-1.063,2.731A3.593,3.593,0,0,1,104.658.164a4.216,4.216,0,0,1-1.9-.451,3.1,3.1,0,0,1-1.377-1.323A4.407,4.407,0,0,1,100.905-3.732Zm1.969.1a2.4,2.4,0,0,0,.513,1.654,1.629,1.629,0,0,0,1.265.574,1.619,1.619,0,0,0,1.261-.574,2.438,2.438,0,0,0,.509-1.668,2.394,2.394,0,0,0-.509-1.641,1.619,1.619,0,0,0-1.261-.574,1.629,1.629,0,0,0-1.265.574A2.4,2.4,0,0,0,102.874-3.63ZM113.23-7.26v1.531h-1.312V-2.8a7.277,7.277,0,0,0,.038,1.036.422.422,0,0,0,.171.243.542.542,0,0,0,.325.1,2.485,2.485,0,0,0,.772-.185l.164,1.49a3.818,3.818,0,0,1-1.518.287,2.407,2.407,0,0,1-.937-.174,1.367,1.367,0,0,1-.612-.451,1.781,1.781,0,0,1-.27-.749,9.311,9.311,0,0,1-.062-1.354V-5.729h-.882V-7.26h.882V-8.7l1.928-1.121V-7.26ZM114.563,0V-10.021h1.921V0Zm5.325-5.045-1.743-.314a2.715,2.715,0,0,1,1.012-1.559,3.7,3.7,0,0,1,2.133-.506,4.6,4.6,0,0,1,1.914.3,1.909,1.909,0,0,1,.885.772,3.961,3.961,0,0,1,.256,1.719l-.021,2.242a7.784,7.784,0,0,0,.092,1.412,4.12,4.12,0,0,0,.345.974h-1.9q-.075-.191-.185-.567-.048-.171-.068-.226a3.463,3.463,0,0,1-1.053.718,3.015,3.015,0,0,1-1.2.239,2.474,2.474,0,0,1-1.767-.608,2.022,2.022,0,0,1-.646-1.538,2.065,2.065,0,0,1,.294-1.1,1.921,1.921,0,0,1,.824-.738,6.438,6.438,0,0,1,1.528-.448,10.466,10.466,0,0,0,1.866-.472v-.191a1,1,0,0,0-.273-.79,1.639,1.639,0,0,0-1.032-.236,1.375,1.375,0,0,0-.8.2A1.4,1.4,0,0,0,119.889-5.045Zm2.57,1.559a12.007,12.007,0,0,1-1.169.294,3.521,3.521,0,0,0-1.046.335.8.8,0,0,0-.376.677.942.942,0,0,0,.3.7,1.05,1.05,0,0,0,.766.294,1.664,1.664,0,0,0,.991-.342,1.2,1.2,0,0,0,.458-.636,3.793,3.793,0,0,0,.075-.937ZM132.843,0h-1.921V-3.705a5.726,5.726,0,0,0-.123-1.521,1.067,1.067,0,0,0-.4-.537,1.143,1.143,0,0,0-.667-.191,1.54,1.54,0,0,0-.9.273,1.378,1.378,0,0,0-.543.725,6.264,6.264,0,0,0-.147,1.668V0h-1.921V-7.26h1.784v1.066a2.907,2.907,0,0,1,2.393-1.23,2.882,2.882,0,0,1,1.162.229,1.947,1.947,0,0,1,.8.584,2.117,2.117,0,0,1,.376.807,6,6,0,0,1,.106,1.292Zm8.606,0h-1.784V-1.066a2.883,2.883,0,0,1-1.049.926,2.692,2.692,0,0,1-1.22.3,2.765,2.765,0,0,1-2.143-1.008,4.1,4.1,0,0,1-.892-2.813,4.053,4.053,0,0,1,.868-2.806,2.83,2.83,0,0,1,2.194-.96,2.718,2.718,0,0,1,2.105,1.012v-3.609h1.921Zm-5.127-3.787a3.324,3.324,0,0,0,.321,1.682,1.452,1.452,0,0,0,1.3.752,1.414,1.414,0,0,0,1.128-.564,2.6,2.6,0,0,0,.465-1.685,2.849,2.849,0,0,0-.451-1.8,1.428,1.428,0,0,0-1.155-.55,1.443,1.443,0,0,0-1.145.543A2.456,2.456,0,0,0,136.322-3.787Zm14.1,6.733H149.1a13.293,13.293,0,0,1-1.593-3.281,10.75,10.75,0,0,1-.547-3.295,10.347,10.347,0,0,1,.677-3.739,13.121,13.121,0,0,1,1.49-2.823h1.313a20.737,20.737,0,0,0-1.289,3.524,13.039,13.039,0,0,0-.352,3.08,13.143,13.143,0,0,0,.208,2.3,14.988,14.988,0,0,0,.571,2.235Q149.816,1.641,150.418,2.946Zm1.08-7.9a6.374,6.374,0,0,1,.458-2.57,4.716,4.716,0,0,1,.933-1.374,3.9,3.9,0,0,1,1.3-.9,5.5,5.5,0,0,1,2.16-.4,4.705,4.705,0,0,1,3.544,1.374A5.266,5.266,0,0,1,161.219-5,5.249,5.249,0,0,1,159.9-1.2,4.669,4.669,0,0,1,156.372.171a4.717,4.717,0,0,1-3.555-1.364A5.175,5.175,0,0,1,151.5-4.949Zm2.085-.068a3.755,3.755,0,0,0,.786,2.581,2.561,2.561,0,0,0,2,.878,2.539,2.539,0,0,0,1.986-.872,3.83,3.83,0,0,0,.776-2.615,3.768,3.768,0,0,0-.755-2.57,2.556,2.556,0,0,0-2.006-.848,2.573,2.573,0,0,0-2.017.858A3.786,3.786,0,0,0,153.583-5.018ZM162.716,0V-10.021h1.921V-4.7l2.249-2.557h2.365L166.77-4.607,169.429,0h-2.071l-1.825-3.261-.9.937V0Zm9.29-5.045-1.743-.314a2.715,2.715,0,0,1,1.012-1.559,3.7,3.7,0,0,1,2.133-.506,4.6,4.6,0,0,1,1.914.3,1.909,1.909,0,0,1,.885.772,3.961,3.961,0,0,1,.256,1.719l-.021,2.242a7.784,7.784,0,0,0,.092,1.412A4.12,4.12,0,0,0,176.88,0h-1.9q-.075-.191-.185-.567-.048-.171-.068-.226a3.463,3.463,0,0,1-1.053.718,3.015,3.015,0,0,1-1.2.239,2.474,2.474,0,0,1-1.767-.608,2.022,2.022,0,0,1-.646-1.538,2.065,2.065,0,0,1,.294-1.1,1.921,1.921,0,0,1,.824-.738,6.438,6.438,0,0,1,1.528-.448,10.466,10.466,0,0,0,1.866-.472v-.191a1,1,0,0,0-.273-.79,1.639,1.639,0,0,0-1.032-.236,1.375,1.375,0,0,0-.8.2A1.4,1.4,0,0,0,172.006-5.045Zm2.57,1.559a12.007,12.007,0,0,1-1.169.294,3.521,3.521,0,0,0-1.046.335.8.8,0,0,0-.376.677.942.942,0,0,0,.3.7,1.05,1.05,0,0,0,.766.294,1.664,1.664,0,0,0,.991-.342,1.2,1.2,0,0,0,.458-.636,3.793,3.793,0,0,0,.075-.937Zm-3.4-5.059v-1.647h1.647v1.647Zm2.939,0v-1.647h1.654v1.647ZM184.96,0h-1.921V-3.705a5.726,5.726,0,0,0-.123-1.521,1.067,1.067,0,0,0-.4-.537,1.143,1.143,0,0,0-.667-.191,1.54,1.54,0,0,0-.9.273,1.378,1.378,0,0,0-.543.725,6.264,6.264,0,0,0-.147,1.668V0h-1.921V-7.26h1.784v1.066a2.907,2.907,0,0,1,2.393-1.23,2.882,2.882,0,0,1,1.162.229,1.947,1.947,0,0,1,.8.584,2.117,2.117,0,0,1,.376.807,6,6,0,0,1,.106,1.292Zm8.606,0h-1.784V-1.066a2.883,2.883,0,0,1-1.049.926,2.692,2.692,0,0,1-1.22.3A2.765,2.765,0,0,1,187.37-.844a4.1,4.1,0,0,1-.892-2.813,4.053,4.053,0,0,1,.868-2.806,2.83,2.83,0,0,1,2.194-.96,2.718,2.718,0,0,1,2.105,1.012v-3.609h1.921Zm-5.127-3.787a3.324,3.324,0,0,0,.321,1.682,1.452,1.452,0,0,0,1.3.752,1.414,1.414,0,0,0,1.128-.564,2.6,2.6,0,0,0,.465-1.685,2.849,2.849,0,0,0-.451-1.8,1.428,1.428,0,0,0-1.155-.55,1.443,1.443,0,0,0-1.145.543A2.456,2.456,0,0,0,188.439-3.787Zm6.487,6.733q.567-1.217.8-1.866a13.8,13.8,0,0,0,.431-1.5,15.652,15.652,0,0,0,.294-1.61,12.53,12.53,0,0,0,.1-1.562,13.161,13.161,0,0,0-.349-3.08,20.489,20.489,0,0,0-1.285-3.524h1.306a12.557,12.557,0,0,1,1.6,3.117,10.146,10.146,0,0,1,.571,3.343,11.535,11.535,0,0,1-.451,3.063,12.889,12.889,0,0,1-1.688,3.616Z" transform="translate(1557.5 2553)"/>
    <path id="Path_6" data-name="Path 6" d="M.506-3.261l1.969-.191A2.4,2.4,0,0,0,3.2-2a2.181,2.181,0,0,0,1.466.465,2.254,2.254,0,0,0,1.473-.414,1.23,1.23,0,0,0,.5-.967.912.912,0,0,0-.208-.6,1.666,1.666,0,0,0-.728-.434q-.355-.123-1.62-.437A5.5,5.5,0,0,1,1.791-5.38,2.608,2.608,0,0,1,.868-7.4,2.576,2.576,0,0,1,1.3-8.829,2.718,2.718,0,0,1,2.553-9.844a5.014,5.014,0,0,1,1.972-.349,4.23,4.23,0,0,1,2.84.827,2.919,2.919,0,0,1,1,2.208l-2.023.089a1.718,1.718,0,0,0-.557-1.111A2.04,2.04,0,0,0,4.5-8.518a2.312,2.312,0,0,0-1.381.362.73.73,0,0,0-.321.622.77.77,0,0,0,.3.608,5.32,5.32,0,0,0,1.859.67,9.812,9.812,0,0,1,2.184.721A2.815,2.815,0,0,1,8.254-4.515a2.979,2.979,0,0,1,.4,1.6,2.951,2.951,0,0,1-.479,1.613A2.868,2.868,0,0,1,6.822-.188,5.676,5.676,0,0,1,4.642.178,4.341,4.341,0,0,1,1.723-.7,3.821,3.821,0,0,1,.506-3.261ZM15.121,0V-1.087a2.8,2.8,0,0,1-1.042.916,2.922,2.922,0,0,1-1.364.335A2.666,2.666,0,0,1,11.4-.157a1.9,1.9,0,0,1-.841-.9,4.027,4.027,0,0,1-.26-1.606V-7.26h1.921v3.336a9.251,9.251,0,0,0,.106,1.876,1.023,1.023,0,0,0,.386.547,1.187,1.187,0,0,0,.711.2,1.511,1.511,0,0,0,.882-.27,1.374,1.374,0,0,0,.533-.67A7.776,7.776,0,0,0,14.984-4.2V-7.26h1.921V0Zm3.1-2.071,1.928-.294a1.413,1.413,0,0,0,.5.851,1.686,1.686,0,0,0,1.053.291A1.9,1.9,0,0,0,22.818-1.5a.61.61,0,0,0,.253-.513.5.5,0,0,0-.137-.362,1.531,1.531,0,0,0-.643-.253,10.363,10.363,0,0,1-2.946-.937A1.87,1.87,0,0,1,18.484-5.2a2.014,2.014,0,0,1,.745-1.586,3.479,3.479,0,0,1,2.311-.643,4.031,4.031,0,0,1,2.215.485,2.481,2.481,0,0,1,1,1.436l-1.812.335a1.12,1.12,0,0,0-.441-.649,1.612,1.612,0,0,0-.926-.226,2.087,2.087,0,0,0-1.087.212.455.455,0,0,0-.219.39.425.425,0,0,0,.191.349,7.207,7.207,0,0,0,1.794.54A5.342,5.342,0,0,1,24.4-3.7,1.776,1.776,0,0,1,25-2.27a2.193,2.193,0,0,1-.834,1.716A3.692,3.692,0,0,1,21.7.164a4.049,4.049,0,0,1-2.348-.6A2.772,2.772,0,0,1,18.218-2.071Zm7.786,0,1.928-.294a1.413,1.413,0,0,0,.5.851,1.686,1.686,0,0,0,1.053.291A1.9,1.9,0,0,0,30.6-1.5a.61.61,0,0,0,.253-.513.5.5,0,0,0-.137-.362,1.531,1.531,0,0,0-.643-.253,10.363,10.363,0,0,1-2.946-.937A1.87,1.87,0,0,1,26.271-5.2a2.014,2.014,0,0,1,.745-1.586,3.479,3.479,0,0,1,2.311-.643,4.031,4.031,0,0,1,2.215.485,2.481,2.481,0,0,1,1,1.436l-1.812.335a1.12,1.12,0,0,0-.441-.649,1.612,1.612,0,0,0-.926-.226,2.087,2.087,0,0,0-1.087.212.455.455,0,0,0-.219.39.425.425,0,0,0,.191.349,7.207,7.207,0,0,0,1.794.54,5.342,5.342,0,0,1,2.143.854,1.776,1.776,0,0,1,.6,1.429,2.193,2.193,0,0,1-.834,1.716,3.692,3.692,0,0,1-2.468.718,4.049,4.049,0,0,1-2.348-.6A2.772,2.772,0,0,1,26-2.071Zm9.9-2.974-1.743-.314a2.715,2.715,0,0,1,1.012-1.559A3.7,3.7,0,0,1,37.3-7.424a4.6,4.6,0,0,1,1.914.3,1.909,1.909,0,0,1,.885.772,3.961,3.961,0,0,1,.256,1.719l-.021,2.242a7.784,7.784,0,0,0,.092,1.412A4.12,4.12,0,0,0,40.776,0h-1.9q-.075-.191-.185-.567-.048-.171-.068-.226a3.463,3.463,0,0,1-1.053.718,3.015,3.015,0,0,1-1.2.239,2.474,2.474,0,0,1-1.767-.608,2.022,2.022,0,0,1-.646-1.538,2.065,2.065,0,0,1,.294-1.1,1.921,1.921,0,0,1,.824-.738,6.438,6.438,0,0,1,1.528-.448,10.466,10.466,0,0,0,1.866-.472v-.191a1,1,0,0,0-.273-.79,1.639,1.639,0,0,0-1.032-.236,1.375,1.375,0,0,0-.8.2A1.4,1.4,0,0,0,35.9-5.045Zm2.57,1.559a12.007,12.007,0,0,1-1.169.294,3.521,3.521,0,0,0-1.046.335.8.8,0,0,0-.376.677.942.942,0,0,0,.3.7,1.05,1.05,0,0,0,.766.294,1.664,1.664,0,0,0,.991-.342,1.2,1.2,0,0,0,.458-.636,3.793,3.793,0,0,0,.075-.937ZM49.328,2.946H48.009A13.293,13.293,0,0,1,46.416-.335a10.75,10.75,0,0,1-.547-3.295,10.347,10.347,0,0,1,.677-3.739,13.121,13.121,0,0,1,1.49-2.823h1.313A20.737,20.737,0,0,0,48.06-6.668a13.039,13.039,0,0,0-.352,3.08,13.143,13.143,0,0,0,.208,2.3A14.988,14.988,0,0,0,48.487.943Q48.727,1.641,49.328,2.946Zm7.9-6.631,1.962.622a4.4,4.4,0,0,1-1.5,2.437,4.28,4.28,0,0,1-2.663.8,4.311,4.311,0,0,1-3.281-1.364,5.218,5.218,0,0,1-1.285-3.729,5.478,5.478,0,0,1,1.292-3.886,4.43,4.43,0,0,1,3.4-1.384A4.168,4.168,0,0,1,58.14-9.105,3.953,3.953,0,0,1,59.165-7.26l-2,.479a2.124,2.124,0,0,0-.742-1.23,2.125,2.125,0,0,0-1.371-.451,2.28,2.28,0,0,0-1.808.8,3.921,3.921,0,0,0-.694,2.591,4.2,4.2,0,0,0,.684,2.707,2.22,2.22,0,0,0,1.777.807A2.027,2.027,0,0,0,56.4-2.071,2.978,2.978,0,0,0,57.23-3.685Zm5.12-1.36-1.743-.314a2.715,2.715,0,0,1,1.012-1.559,3.7,3.7,0,0,1,2.133-.506,4.6,4.6,0,0,1,1.914.3,1.909,1.909,0,0,1,.885.772,3.961,3.961,0,0,1,.256,1.719l-.021,2.242a7.784,7.784,0,0,0,.092,1.412A4.12,4.12,0,0,0,67.225,0h-1.9q-.075-.191-.185-.567-.048-.171-.068-.226a3.463,3.463,0,0,1-1.053.718,3.015,3.015,0,0,1-1.2.239,2.474,2.474,0,0,1-1.767-.608,2.022,2.022,0,0,1-.646-1.538,2.065,2.065,0,0,1,.294-1.1,1.921,1.921,0,0,1,.824-.738,6.438,6.438,0,0,1,1.528-.448,10.466,10.466,0,0,0,1.866-.472v-.191a1,1,0,0,0-.273-.79,1.639,1.639,0,0,0-1.032-.236,1.375,1.375,0,0,0-.8.2A1.4,1.4,0,0,0,62.351-5.045Zm2.57,1.559a12.007,12.007,0,0,1-1.169.294,3.521,3.521,0,0,0-1.046.335.8.8,0,0,0-.376.677.942.942,0,0,0,.3.7,1.05,1.05,0,0,0,.766.294,1.664,1.664,0,0,0,.991-.342,1.2,1.2,0,0,0,.458-.636,3.793,3.793,0,0,0,.075-.937ZM68.558-7.26h1.771v.991a2.849,2.849,0,0,1,2.263-1.155,2.437,2.437,0,0,1,1.21.287,2.206,2.206,0,0,1,.841.868,3.354,3.354,0,0,1,1.032-.868,2.533,2.533,0,0,1,1.183-.287A2.634,2.634,0,0,1,78.21-7.1a1.989,1.989,0,0,1,.827.954,4.137,4.137,0,0,1,.2,1.5V0H77.314V-4.149a3.087,3.087,0,0,0-.2-1.395.91.91,0,0,0-.82-.41,1.309,1.309,0,0,0-.759.246,1.365,1.365,0,0,0-.513.721,5.189,5.189,0,0,0-.157,1.5V0H72.946V-3.979a5.519,5.519,0,0,0-.1-1.367.872.872,0,0,0-.318-.458,1,1,0,0,0-.584-.15,1.4,1.4,0,0,0-.8.239,1.312,1.312,0,0,0-.509.69,5.132,5.132,0,0,0-.154,1.5V0H68.558ZM81.067,0V-10.021h1.921v3.609a2.718,2.718,0,0,1,2.105-1.012,2.83,2.83,0,0,1,2.194.96,3.977,3.977,0,0,1,.868,2.758,4.2,4.2,0,0,1-.885,2.864,2.762,2.762,0,0,1-2.15,1,2.658,2.658,0,0,1-1.227-.311,2.934,2.934,0,0,1-1.042-.919V0Zm1.907-3.787a3.087,3.087,0,0,0,.355,1.668,1.52,1.52,0,0,0,1.326.766A1.359,1.359,0,0,0,85.74-1.9a2.674,2.674,0,0,0,.448-1.712A2.835,2.835,0,0,0,85.736-5.4a1.428,1.428,0,0,0-1.155-.55,1.447,1.447,0,0,0-1.148.537A2.464,2.464,0,0,0,82.975-3.787ZM89.7-8.244v-1.777h1.921v1.777ZM89.7,0V-7.26h1.921V0Zm3.445-3.732a3.927,3.927,0,0,1,.472-1.853,3.238,3.238,0,0,1,1.336-1.367,3.966,3.966,0,0,1,1.931-.472,3.625,3.625,0,0,1,2.7,1.07,3.7,3.7,0,0,1,1.053,2.7A3.74,3.74,0,0,1,99.576-.919,3.593,3.593,0,0,1,96.9.164,4.216,4.216,0,0,1,95-.287,3.1,3.1,0,0,1,93.618-1.61,4.407,4.407,0,0,1,93.146-3.732Zm1.969.1a2.4,2.4,0,0,0,.513,1.654,1.629,1.629,0,0,0,1.265.574,1.619,1.619,0,0,0,1.261-.574,2.438,2.438,0,0,0,.509-1.668,2.394,2.394,0,0,0-.509-1.641,1.619,1.619,0,0,0-1.261-.574,1.629,1.629,0,0,0-1.265.574A2.4,2.4,0,0,0,95.115-3.63Zm6.494,6.576q.567-1.217.8-1.866a13.808,13.808,0,0,0,.431-1.5,15.652,15.652,0,0,0,.294-1.61,12.528,12.528,0,0,0,.1-1.562,13.161,13.161,0,0,0-.349-3.08,20.488,20.488,0,0,0-1.285-3.524H102.9a12.557,12.557,0,0,1,1.6,3.117,10.146,10.146,0,0,1,.571,3.343,11.535,11.535,0,0,1-.451,3.063,12.89,12.89,0,0,1-1.688,3.616Z" transform="translate(1557.5 2569)"/>
    <path id="Path_5" data-name="Path 5" d="M1.032,0V-10.021H7.9v1.7H3.056v2.372H7.239v1.7H3.056V0ZM11.4,0H9.475V-7.26h1.784v1.032a3.1,3.1,0,0,1,.824-.964,1.515,1.515,0,0,1,.831-.232,2.438,2.438,0,0,1,1.265.362l-.595,1.675a1.686,1.686,0,0,0-.9-.314A1.066,1.066,0,0,0,12-5.479a1.519,1.519,0,0,0-.441.8A11.411,11.411,0,0,0,11.4-2.242ZM15-8.244v-1.777h1.921v1.777ZM15,0V-7.26h1.921V0Zm3.213-2.071,1.928-.294a1.413,1.413,0,0,0,.5.851,1.686,1.686,0,0,0,1.053.291A1.9,1.9,0,0,0,22.818-1.5a.61.61,0,0,0,.253-.513.5.5,0,0,0-.137-.362,1.531,1.531,0,0,0-.643-.253,10.363,10.363,0,0,1-2.946-.937A1.87,1.87,0,0,1,18.484-5.2a2.014,2.014,0,0,1,.745-1.586,3.479,3.479,0,0,1,2.311-.643,4.031,4.031,0,0,1,2.215.485,2.481,2.481,0,0,1,1,1.436l-1.812.335a1.12,1.12,0,0,0-.441-.649,1.612,1.612,0,0,0-.926-.226,2.087,2.087,0,0,0-1.087.212.455.455,0,0,0-.219.39.425.425,0,0,0,.191.349,7.207,7.207,0,0,0,1.794.54A5.342,5.342,0,0,1,24.4-3.7,1.776,1.776,0,0,1,25-2.27a2.193,2.193,0,0,1-.834,1.716A3.692,3.692,0,0,1,21.7.164a4.049,4.049,0,0,1-2.348-.6A2.772,2.772,0,0,1,18.218-2.071ZM30.01-7.26v1.531H28.7V-2.8a7.277,7.277,0,0,0,.038,1.036.422.422,0,0,0,.171.243.542.542,0,0,0,.325.1A2.485,2.485,0,0,0,30-1.613l.164,1.49a3.818,3.818,0,0,1-1.518.287,2.407,2.407,0,0,1-.937-.174A1.367,1.367,0,0,1,27.1-.461a1.781,1.781,0,0,1-.27-.749,9.311,9.311,0,0,1-.062-1.354V-5.729h-.882V-7.26h.882V-8.7L28.7-9.823V-7.26Zm2.769,2.215-1.743-.314a2.715,2.715,0,0,1,1.012-1.559,3.7,3.7,0,0,1,2.133-.506,4.6,4.6,0,0,1,1.914.3,1.909,1.909,0,0,1,.885.772,3.961,3.961,0,0,1,.256,1.719l-.021,2.242a7.784,7.784,0,0,0,.092,1.412A4.12,4.12,0,0,0,37.652,0h-1.9q-.075-.191-.185-.567Q35.52-.738,35.5-.793a3.463,3.463,0,0,1-1.053.718,3.015,3.015,0,0,1-1.2.239,2.474,2.474,0,0,1-1.767-.608,2.022,2.022,0,0,1-.646-1.538,2.065,2.065,0,0,1,.294-1.1,1.921,1.921,0,0,1,.824-.738,6.438,6.438,0,0,1,1.528-.448,10.466,10.466,0,0,0,1.866-.472v-.191a1,1,0,0,0-.273-.79,1.639,1.639,0,0,0-1.032-.236,1.375,1.375,0,0,0-.8.2A1.4,1.4,0,0,0,32.778-5.045Zm2.57,1.559a12.007,12.007,0,0,1-1.169.294,3.521,3.521,0,0,0-1.046.335.8.8,0,0,0-.376.677.942.942,0,0,0,.3.7,1.05,1.05,0,0,0,.766.294,1.664,1.664,0,0,0,.991-.342,1.2,1.2,0,0,0,.458-.636,3.793,3.793,0,0,0,.075-.937Zm.232-5.687a1.291,1.291,0,0,1-.393.947,1.291,1.291,0,0,1-.947.393,1.291,1.291,0,0,1-.947-.393,1.291,1.291,0,0,1-.393-.947,1.291,1.291,0,0,1,.393-.947,1.291,1.291,0,0,1,.947-.393,1.3,1.3,0,0,1,.947.39A1.287,1.287,0,0,1,35.581-9.174Zm-.731,0a.587.587,0,0,0-.178-.431.587.587,0,0,0-.431-.178.587.587,0,0,0-.431.178.587.587,0,0,0-.178.431.587.587,0,0,0,.178.431.587.587,0,0,0,.431.178.587.587,0,0,0,.431-.178A.587.587,0,0,0,34.85-9.174Zm8.483,6.863,1.914.321a3.14,3.14,0,0,1-1.166,1.6,3.424,3.424,0,0,1-1.993.55,3.248,3.248,0,0,1-2.8-1.237,4.157,4.157,0,0,1-.718-2.5A4.009,4.009,0,0,1,39.512-6.4,3.107,3.107,0,0,1,41.9-7.424a3.223,3.223,0,0,1,2.557,1.07,4.734,4.734,0,0,1,.9,3.278H40.537A1.943,1.943,0,0,0,41-1.747a1.454,1.454,0,0,0,1.107.475,1.176,1.176,0,0,0,.759-.246A1.52,1.52,0,0,0,43.333-2.311Zm.109-1.941a1.849,1.849,0,0,0-.431-1.268,1.322,1.322,0,0,0-1-.434,1.334,1.334,0,0,0-1.039.458,1.772,1.772,0,0,0-.4,1.244ZM53.519,0H51.6V-3.705a5.726,5.726,0,0,0-.123-1.521,1.067,1.067,0,0,0-.4-.537,1.143,1.143,0,0,0-.667-.191,1.54,1.54,0,0,0-.9.273,1.378,1.378,0,0,0-.543.725,6.263,6.263,0,0,0-.147,1.668V0H46.9V-7.26h1.784v1.066a2.907,2.907,0,0,1,2.393-1.23,2.882,2.882,0,0,1,1.162.229,1.947,1.947,0,0,1,.8.584,2.117,2.117,0,0,1,.376.807,6,6,0,0,1,.106,1.292Zm8.606,0H60.341V-1.066a2.883,2.883,0,0,1-1.049.926,2.692,2.692,0,0,1-1.22.3A2.765,2.765,0,0,1,55.928-.844a4.1,4.1,0,0,1-.892-2.813A4.053,4.053,0,0,1,55.9-6.463a2.83,2.83,0,0,1,2.194-.96A2.718,2.718,0,0,1,60.2-6.412v-3.609h1.921ZM57-3.787a3.324,3.324,0,0,0,.321,1.682,1.452,1.452,0,0,0,1.3.752,1.414,1.414,0,0,0,1.128-.564A2.6,2.6,0,0,0,60.211-3.6a2.849,2.849,0,0,0-.451-1.8,1.428,1.428,0,0,0-1.155-.55,1.443,1.443,0,0,0-1.145.543A2.456,2.456,0,0,0,57-3.787ZM68.223-2.311l1.914.321a3.14,3.14,0,0,1-1.166,1.6,3.424,3.424,0,0,1-1.993.55,3.248,3.248,0,0,1-2.8-1.237,4.157,4.157,0,0,1-.718-2.5A4.009,4.009,0,0,1,64.4-6.4a3.107,3.107,0,0,1,2.386-1.022,3.223,3.223,0,0,1,2.557,1.07,4.734,4.734,0,0,1,.9,3.278H65.427a1.943,1.943,0,0,0,.465,1.33A1.454,1.454,0,0,0,67-1.271a1.176,1.176,0,0,0,.759-.246A1.52,1.52,0,0,0,68.223-2.311Zm.109-1.941A1.849,1.849,0,0,0,67.9-5.52a1.322,1.322,0,0,0-1-.434,1.334,1.334,0,0,0-1.039.458,1.772,1.772,0,0,0-.4,1.244Zm10.548,7.2H77.561A13.293,13.293,0,0,1,75.968-.335a10.75,10.75,0,0,1-.547-3.295A10.347,10.347,0,0,1,76.1-7.369a13.121,13.121,0,0,1,1.49-2.823H78.9a20.737,20.737,0,0,0-1.289,3.524,13.039,13.039,0,0,0-.352,3.08,13.143,13.143,0,0,0,.208,2.3A14.988,14.988,0,0,0,78.039.943Q78.278,1.641,78.88,2.946Zm7.9-6.631,1.962.622a4.4,4.4,0,0,1-1.5,2.437,4.28,4.28,0,0,1-2.663.8A4.311,4.311,0,0,1,81.3-1.193a5.218,5.218,0,0,1-1.285-3.729,5.478,5.478,0,0,1,1.292-3.886,4.43,4.43,0,0,1,3.4-1.384,4.168,4.168,0,0,1,2.987,1.087A3.953,3.953,0,0,1,88.717-7.26l-2,.479a2.124,2.124,0,0,0-.742-1.23A2.125,2.125,0,0,0,84.6-8.463a2.28,2.28,0,0,0-1.808.8A3.921,3.921,0,0,0,82.1-5.072a4.2,4.2,0,0,0,.684,2.707,2.22,2.22,0,0,0,1.777.807,2.027,2.027,0,0,0,1.388-.513A2.978,2.978,0,0,0,86.782-3.685Zm5.12-1.36-1.743-.314a2.715,2.715,0,0,1,1.012-1.559A3.7,3.7,0,0,1,93.3-7.424a4.6,4.6,0,0,1,1.914.3,1.909,1.909,0,0,1,.885.772,3.961,3.961,0,0,1,.256,1.719l-.021,2.242a7.784,7.784,0,0,0,.092,1.412A4.12,4.12,0,0,0,96.776,0h-1.9q-.075-.191-.185-.567-.048-.171-.068-.226a3.463,3.463,0,0,1-1.053.718,3.015,3.015,0,0,1-1.2.239,2.474,2.474,0,0,1-1.767-.608,2.022,2.022,0,0,1-.646-1.538,2.065,2.065,0,0,1,.294-1.1,1.921,1.921,0,0,1,.824-.738,6.438,6.438,0,0,1,1.528-.448,10.466,10.466,0,0,0,1.866-.472v-.191a1,1,0,0,0-.273-.79,1.639,1.639,0,0,0-1.032-.236,1.375,1.375,0,0,0-.8.2A1.4,1.4,0,0,0,91.9-5.045Zm2.57,1.559a12.007,12.007,0,0,1-1.169.294,3.521,3.521,0,0,0-1.046.335.8.8,0,0,0-.376.677.942.942,0,0,0,.3.7,1.05,1.05,0,0,0,.766.294,1.664,1.664,0,0,0,.991-.342,1.2,1.2,0,0,0,.458-.636,3.793,3.793,0,0,0,.075-.937ZM98.109-7.26H99.88v.991a2.849,2.849,0,0,1,2.263-1.155,2.437,2.437,0,0,1,1.21.287,2.206,2.206,0,0,1,.841.868,3.354,3.354,0,0,1,1.032-.868,2.533,2.533,0,0,1,1.183-.287,2.634,2.634,0,0,1,1.354.325,1.989,1.989,0,0,1,.827.954,4.137,4.137,0,0,1,.2,1.5V0h-1.921V-4.149a3.087,3.087,0,0,0-.2-1.395.91.91,0,0,0-.82-.41,1.309,1.309,0,0,0-.759.246,1.365,1.365,0,0,0-.513.721,5.189,5.189,0,0,0-.157,1.5V0H102.5V-3.979a5.519,5.519,0,0,0-.1-1.367.872.872,0,0,0-.318-.458,1,1,0,0,0-.584-.15,1.4,1.4,0,0,0-.8.239,1.312,1.312,0,0,0-.509.69,5.132,5.132,0,0,0-.154,1.5V0H98.109ZM110.619,0V-10.021h1.921v3.609a2.718,2.718,0,0,1,2.105-1.012,2.83,2.83,0,0,1,2.194.96,3.977,3.977,0,0,1,.868,2.758,4.2,4.2,0,0,1-.885,2.864,2.762,2.762,0,0,1-2.15,1,2.658,2.658,0,0,1-1.227-.311,2.934,2.934,0,0,1-1.042-.919V0Zm1.907-3.787a3.087,3.087,0,0,0,.355,1.668,1.52,1.52,0,0,0,1.326.766,1.359,1.359,0,0,0,1.083-.543,2.674,2.674,0,0,0,.448-1.712,2.835,2.835,0,0,0-.451-1.794,1.428,1.428,0,0,0-1.155-.55,1.447,1.447,0,0,0-1.148.537A2.464,2.464,0,0,0,112.526-3.787Zm6.727-4.457v-1.777h1.921v1.777Zm0,8.244V-7.26h1.921V0ZM122.7-3.732a3.927,3.927,0,0,1,.472-1.853,3.238,3.238,0,0,1,1.336-1.367,3.966,3.966,0,0,1,1.931-.472,3.625,3.625,0,0,1,2.7,1.07,3.7,3.7,0,0,1,1.053,2.7,3.74,3.74,0,0,1-1.063,2.731A3.593,3.593,0,0,1,126.451.164a4.216,4.216,0,0,1-1.9-.451A3.1,3.1,0,0,1,123.17-1.61,4.407,4.407,0,0,1,122.7-3.732Zm1.969.1a2.4,2.4,0,0,0,.513,1.654,1.629,1.629,0,0,0,1.265.574,1.619,1.619,0,0,0,1.261-.574,2.438,2.438,0,0,0,.509-1.668,2.394,2.394,0,0,0-.509-1.641,1.619,1.619,0,0,0-1.261-.574,1.629,1.629,0,0,0-1.265.574A2.4,2.4,0,0,0,124.667-3.63Zm6.494,6.576q.567-1.217.8-1.866a13.8,13.8,0,0,0,.431-1.5,15.652,15.652,0,0,0,.294-1.61,12.53,12.53,0,0,0,.1-1.562,13.161,13.161,0,0,0-.349-3.08,20.489,20.489,0,0,0-1.285-3.524h1.306a12.557,12.557,0,0,1,1.6,3.117,10.146,10.146,0,0,1,.571,3.343,11.535,11.535,0,0,1-.451,3.063,12.889,12.889,0,0,1-1.688,3.616Z" transform="translate(1557.5 2585)"/>
    <path id="Path_4" data-name="Path 4" d="M1.032,0V-10.021H7.9v1.7H3.056v2.372H7.239v1.7H3.056V0ZM11.4,0H9.475V-7.26h1.784v1.032a3.1,3.1,0,0,1,.824-.964,1.515,1.515,0,0,1,.831-.232,2.438,2.438,0,0,1,1.265.362l-.595,1.675a1.686,1.686,0,0,0-.9-.314A1.066,1.066,0,0,0,12-5.479a1.519,1.519,0,0,0-.441.8A11.411,11.411,0,0,0,11.4-2.242ZM15-8.244v-1.777h1.921v1.777ZM15,0V-7.26h1.921V0Zm3.213-2.071,1.928-.294a1.413,1.413,0,0,0,.5.851,1.686,1.686,0,0,0,1.053.291A1.9,1.9,0,0,0,22.818-1.5a.61.61,0,0,0,.253-.513.5.5,0,0,0-.137-.362,1.531,1.531,0,0,0-.643-.253,10.363,10.363,0,0,1-2.946-.937A1.87,1.87,0,0,1,18.484-5.2a2.014,2.014,0,0,1,.745-1.586,3.479,3.479,0,0,1,2.311-.643,4.031,4.031,0,0,1,2.215.485,2.481,2.481,0,0,1,1,1.436l-1.812.335a1.12,1.12,0,0,0-.441-.649,1.612,1.612,0,0,0-.926-.226,2.087,2.087,0,0,0-1.087.212.455.455,0,0,0-.219.39.425.425,0,0,0,.191.349,7.207,7.207,0,0,0,1.794.54A5.342,5.342,0,0,1,24.4-3.7,1.776,1.776,0,0,1,25-2.27a2.193,2.193,0,0,1-.834,1.716A3.692,3.692,0,0,1,21.7.164a4.049,4.049,0,0,1-2.348-.6A2.772,2.772,0,0,1,18.218-2.071ZM30.01-7.26v1.531H28.7V-2.8a7.277,7.277,0,0,0,.038,1.036.422.422,0,0,0,.171.243.542.542,0,0,0,.325.1A2.485,2.485,0,0,0,30-1.613l.164,1.49a3.818,3.818,0,0,1-1.518.287,2.407,2.407,0,0,1-.937-.174A1.367,1.367,0,0,1,27.1-.461a1.781,1.781,0,0,1-.27-.749,9.311,9.311,0,0,1-.062-1.354V-5.729h-.882V-7.26h.882V-8.7L28.7-9.823V-7.26Zm2.769,2.215-1.743-.314a2.715,2.715,0,0,1,1.012-1.559,3.7,3.7,0,0,1,2.133-.506,4.6,4.6,0,0,1,1.914.3,1.909,1.909,0,0,1,.885.772,3.961,3.961,0,0,1,.256,1.719l-.021,2.242a7.784,7.784,0,0,0,.092,1.412A4.12,4.12,0,0,0,37.652,0h-1.9q-.075-.191-.185-.567Q35.52-.738,35.5-.793a3.463,3.463,0,0,1-1.053.718,3.015,3.015,0,0,1-1.2.239,2.474,2.474,0,0,1-1.767-.608,2.022,2.022,0,0,1-.646-1.538,2.065,2.065,0,0,1,.294-1.1,1.921,1.921,0,0,1,.824-.738,6.438,6.438,0,0,1,1.528-.448,10.466,10.466,0,0,0,1.866-.472v-.191a1,1,0,0,0-.273-.79,1.639,1.639,0,0,0-1.032-.236,1.375,1.375,0,0,0-.8.2A1.4,1.4,0,0,0,32.778-5.045Zm2.57,1.559a12.007,12.007,0,0,1-1.169.294,3.521,3.521,0,0,0-1.046.335.8.8,0,0,0-.376.677.942.942,0,0,0,.3.7,1.05,1.05,0,0,0,.766.294,1.664,1.664,0,0,0,.991-.342,1.2,1.2,0,0,0,.458-.636,3.793,3.793,0,0,0,.075-.937Zm.232-5.687a1.291,1.291,0,0,1-.393.947,1.291,1.291,0,0,1-.947.393,1.291,1.291,0,0,1-.947-.393,1.291,1.291,0,0,1-.393-.947,1.291,1.291,0,0,1,.393-.947,1.291,1.291,0,0,1,.947-.393,1.3,1.3,0,0,1,.947.39A1.287,1.287,0,0,1,35.581-9.174Zm-.731,0a.587.587,0,0,0-.178-.431.587.587,0,0,0-.431-.178.587.587,0,0,0-.431.178.587.587,0,0,0-.178.431.587.587,0,0,0,.178.431.587.587,0,0,0,.431.178.587.587,0,0,0,.431-.178A.587.587,0,0,0,34.85-9.174Zm8.483,6.863,1.914.321a3.14,3.14,0,0,1-1.166,1.6,3.424,3.424,0,0,1-1.993.55,3.248,3.248,0,0,1-2.8-1.237,4.157,4.157,0,0,1-.718-2.5A4.009,4.009,0,0,1,39.512-6.4,3.107,3.107,0,0,1,41.9-7.424a3.223,3.223,0,0,1,2.557,1.07,4.734,4.734,0,0,1,.9,3.278H40.537A1.943,1.943,0,0,0,41-1.747a1.454,1.454,0,0,0,1.107.475,1.176,1.176,0,0,0,.759-.246A1.52,1.52,0,0,0,43.333-2.311Zm.109-1.941a1.849,1.849,0,0,0-.431-1.268,1.322,1.322,0,0,0-1-.434,1.334,1.334,0,0,0-1.039.458,1.772,1.772,0,0,0-.4,1.244ZM53.519,0H51.6V-3.705a5.726,5.726,0,0,0-.123-1.521,1.067,1.067,0,0,0-.4-.537,1.143,1.143,0,0,0-.667-.191,1.54,1.54,0,0,0-.9.273,1.378,1.378,0,0,0-.543.725,6.263,6.263,0,0,0-.147,1.668V0H46.9V-7.26h1.784v1.066a2.907,2.907,0,0,1,2.393-1.23,2.882,2.882,0,0,1,1.162.229,1.947,1.947,0,0,1,.8.584,2.117,2.117,0,0,1,.376.807,6,6,0,0,1,.106,1.292Zm8.606,0H60.341V-1.066a2.883,2.883,0,0,1-1.049.926,2.692,2.692,0,0,1-1.22.3A2.765,2.765,0,0,1,55.928-.844a4.1,4.1,0,0,1-.892-2.813A4.053,4.053,0,0,1,55.9-6.463a2.83,2.83,0,0,1,2.194-.96A2.718,2.718,0,0,1,60.2-6.412v-3.609h1.921ZM57-3.787a3.324,3.324,0,0,0,.321,1.682,1.452,1.452,0,0,0,1.3.752,1.414,1.414,0,0,0,1.128-.564A2.6,2.6,0,0,0,60.211-3.6a2.849,2.849,0,0,0-.451-1.8,1.428,1.428,0,0,0-1.155-.55,1.443,1.443,0,0,0-1.145.543A2.456,2.456,0,0,0,57-3.787ZM68.223-2.311l1.914.321a3.14,3.14,0,0,1-1.166,1.6,3.424,3.424,0,0,1-1.993.55,3.248,3.248,0,0,1-2.8-1.237,4.157,4.157,0,0,1-.718-2.5A4.009,4.009,0,0,1,64.4-6.4a3.107,3.107,0,0,1,2.386-1.022,3.223,3.223,0,0,1,2.557,1.07,4.734,4.734,0,0,1,.9,3.278H65.427a1.943,1.943,0,0,0,.465,1.33A1.454,1.454,0,0,0,67-1.271a1.176,1.176,0,0,0,.759-.246A1.52,1.52,0,0,0,68.223-2.311Zm.109-1.941A1.849,1.849,0,0,0,67.9-5.52a1.322,1.322,0,0,0-1-.434,1.334,1.334,0,0,0-1.039.458,1.772,1.772,0,0,0-.4,1.244Zm10.548,7.2H77.561A13.293,13.293,0,0,1,75.968-.335a10.75,10.75,0,0,1-.547-3.295A10.347,10.347,0,0,1,76.1-7.369a13.121,13.121,0,0,1,1.49-2.823H78.9a20.737,20.737,0,0,0-1.289,3.524,13.039,13.039,0,0,0-.352,3.08,13.143,13.143,0,0,0,.208,2.3A14.988,14.988,0,0,0,78.039.943Q78.278,1.641,78.88,2.946Zm7.9-6.631,1.962.622a4.4,4.4,0,0,1-1.5,2.437,4.28,4.28,0,0,1-2.663.8A4.311,4.311,0,0,1,81.3-1.193a5.218,5.218,0,0,1-1.285-3.729,5.478,5.478,0,0,1,1.292-3.886,4.43,4.43,0,0,1,3.4-1.384,4.168,4.168,0,0,1,2.987,1.087A3.953,3.953,0,0,1,88.717-7.26l-2,.479a2.124,2.124,0,0,0-.742-1.23A2.125,2.125,0,0,0,84.6-8.463a2.28,2.28,0,0,0-1.808.8A3.921,3.921,0,0,0,82.1-5.072a4.2,4.2,0,0,0,.684,2.707,2.22,2.22,0,0,0,1.777.807,2.027,2.027,0,0,0,1.388-.513A2.978,2.978,0,0,0,86.782-3.685Zm7.889,1.374,1.914.321a3.14,3.14,0,0,1-1.166,1.6,3.424,3.424,0,0,1-1.993.55,3.248,3.248,0,0,1-2.8-1.237,4.157,4.157,0,0,1-.718-2.5A4.009,4.009,0,0,1,90.85-6.4a3.107,3.107,0,0,1,2.386-1.022,3.223,3.223,0,0,1,2.557,1.07,4.734,4.734,0,0,1,.9,3.278H91.875a1.943,1.943,0,0,0,.465,1.33,1.454,1.454,0,0,0,1.107.475,1.176,1.176,0,0,0,.759-.246A1.52,1.52,0,0,0,94.671-2.311Zm.109-1.941A1.849,1.849,0,0,0,94.35-5.52a1.322,1.322,0,0,0-1-.434,1.334,1.334,0,0,0-1.039.458,1.772,1.772,0,0,0-.4,1.244ZM100.092,0H98.171V-7.26h1.784v1.032a3.1,3.1,0,0,1,.824-.964,1.515,1.515,0,0,1,.831-.232,2.438,2.438,0,0,1,1.265.362l-.595,1.675a1.686,1.686,0,0,0-.9-.314,1.066,1.066,0,0,0-.684.222,1.519,1.519,0,0,0-.441.8,11.411,11.411,0,0,0-.161,2.434ZM110.3,0h-1.921V-3.705a5.726,5.726,0,0,0-.123-1.521,1.067,1.067,0,0,0-.4-.537,1.143,1.143,0,0,0-.667-.191,1.54,1.54,0,0,0-.9.273,1.378,1.378,0,0,0-.543.725,6.263,6.263,0,0,0-.147,1.668V0h-1.921V-7.26h1.784v1.066a2.907,2.907,0,0,1,2.393-1.23,2.882,2.882,0,0,1,1.162.229,1.947,1.947,0,0,1,.8.584,2.117,2.117,0,0,1,.376.807,6,6,0,0,1,.106,1.292Zm6.152-2.311,1.914.321a3.14,3.14,0,0,1-1.166,1.6,3.424,3.424,0,0,1-1.993.55,3.248,3.248,0,0,1-2.8-1.237,4.157,4.157,0,0,1-.718-2.5,4.009,4.009,0,0,1,.943-2.827,3.107,3.107,0,0,1,2.386-1.022,3.223,3.223,0,0,1,2.557,1.07,4.734,4.734,0,0,1,.9,3.278h-4.812a1.943,1.943,0,0,0,.465,1.33,1.454,1.454,0,0,0,1.107.475,1.176,1.176,0,0,0,.759-.246A1.52,1.52,0,0,0,116.457-2.311Zm.109-1.941a1.849,1.849,0,0,0-.431-1.268,1.322,1.322,0,0,0-1-.434A1.334,1.334,0,0,0,114.1-5.5a1.772,1.772,0,0,0-.4,1.244ZM121.878,0h-1.921V-7.26h1.784v1.032a3.1,3.1,0,0,1,.824-.964,1.515,1.515,0,0,1,.831-.232,2.438,2.438,0,0,1,1.265.362l-.595,1.675a1.686,1.686,0,0,0-.9-.314,1.066,1.066,0,0,0-.684.222,1.519,1.519,0,0,0-.441.8,11.411,11.411,0,0,0-.161,2.434Zm3.076,2.946q.567-1.217.8-1.866a13.808,13.808,0,0,0,.431-1.5,15.652,15.652,0,0,0,.294-1.61,12.528,12.528,0,0,0,.1-1.562,13.161,13.161,0,0,0-.349-3.08,20.488,20.488,0,0,0-1.285-3.524h1.306a12.557,12.557,0,0,1,1.6,3.117,10.146,10.146,0,0,1,.571,3.343,11.535,11.535,0,0,1-.451,3.063,12.89,12.89,0,0,1-1.688,3.616Z" transform="translate(1557.5 2601)"/>
  </g>
</svg>
