<svg xmlns="http://www.w3.org/2000/svg" width="213.461" height="235.99" viewBox="0 0 213.461 235.99"><g transform="translate(-272.697)"><g transform="translate(272.697)"><path d="M50.487,2.04V158.863s60.29-7.016,60.29,51.874V62.324c0-56.082-60.29-60.284-60.29-60.284" transform="translate(-50.487 8.979)" fill="#231f1f"/><path d="M55.715,0V137.988S89,144.41,89,203.3s.167-109.555.167-141.1C89.171,6.114,55.715,0,55.715,0" transform="translate(-27.477 0)" fill="#aaa"/></g><path d="M62.077,43.944V186.658S91.023,105.584,212.7,210.035c0-37.853.232-133.321.232-164.876C92.659-42.467,62.077,43.944,62.077,43.944" transform="translate(273.222 25.955)" fill="#3978ad"/><path d="M64.2,117.659H91.163l8.712-60.014h.275l23.928,60.014h10.792L159.9,57.645h.275l7.605,60.014h27.126L179.124,13.419H152.161l-22.41,55.709L108.588,13.419H81.9Z" transform="translate(282.566 59.062)" fill="#fff"/></g></svg>